<?xml version="1.0" encoding="utf-8"?>
<!-- Generator: Adobe Illustrator 16.0.0, SVG Export Plug-In . SVG Version: 6.00 Build 0)  -->
<!DOCTYPE svg PUBLIC "-//W3C//DTD SVG 1.1//EN" "http://www.w3.org/Graphics/SVG/1.1/DTD/svg11.dtd">
<svg version="1.1" id="Layer_1" xmlns="http://www.w3.org/2000/svg" xmlns:xlink="http://www.w3.org/1999/xlink" x="0px" y="0px"
	 width="569.5px" height="329.5px" viewBox="0 0 569.5 329.5" enable-background="new 0 0 569.5 329.5" xml:space="preserve">
<g>
	<path fill="none" stroke="#F58220" stroke-width="2.9999" stroke-miterlimit="2.6131" d="M101.221,5.031
		c47.215,0,85.506,38.29,85.506,85.506c0,47.217-38.291,85.507-85.506,85.507c-47.216,0-85.506-38.291-85.506-85.507
		C15.715,43.321,54.005,5.031,101.221,5.031L101.221,5.031z"/>
	<path fill="none" stroke="#FFFFFF" stroke-width="7.9998" stroke-miterlimit="2.6131" d="M159.634,45.474
		C129.903,8.371,75.707,2.394,38.604,32.123c-37.102,29.73-43.08,83.929-13.351,121.03c29.729,37.102,83.927,43.082,121.029,13.353
		C183.386,136.773,189.364,82.576,159.634,45.474L159.634,45.474z"/>
	<path fill-rule="evenodd" clip-rule="evenodd" fill="#FFFFFF" d="M95.613,177.589l2.453-3.923L95.613,177.589L95.613,177.589z
		 M112.081,151.278l2.388-3.812L112.081,151.278L112.081,151.278z M57.75,93.685h20.925c-5.316,4.117-8.741,10.562-8.741,17.805
		c0,9.272,5.611,17.236,13.621,20.683H69.631c-8.365,0-15.172,6.846-15.209,15.209l-0.129,29.14L34.62,163.124v-46.311
		C34.62,104.093,45.027,93.685,57.75,93.685L57.75,93.685z M98.066,173.666v-14.874c0-2.729,5.393-5.942,11.984-7.144l2.03-0.37
		l0.076-0.014l2.557-0.466l-13.958,22.377l-2.169,0.397L98.066,173.666L98.066,173.666L98.066,173.666z M117.042,150.374
		l13.425-2.447v-0.545c0-8.363-6.845-15.209-15.209-15.209h-13.924c8.009-3.446,13.619-11.411,13.619-20.683
		c0-7.243-3.424-13.688-8.74-17.805h20.925c12.722,0,23.129,10.41,23.129,23.128v45.134l-0.253,0.046v2.204l-46.929,8.556
		L117.042,150.374L117.042,150.374z M78.767,93.613c-12.096-5.28-20.554-17.347-20.554-31.386c0-18.902,15.328-34.231,34.23-34.231
		c18.902,0,34.231,15.329,34.231,34.231c0,14.039-8.459,26.105-20.554,31.386c-3.792-2.905-8.533-4.634-13.678-4.634
		C87.3,88.979,82.558,90.708,78.767,93.613L78.767,93.613z"/>
	<path fill="#F58220" d="M196.1,167.88l-5.753,17.237h2.122l5.753-17.237H196.1L196.1,167.88z M198.327,185.117l3.008-9.001
		c0.257-0.782,0.488-1.502,0.698-2.16c0.205-0.657,0.392-1.275,0.561-1.854c0.164-0.578,0.316-1.133,0.453-1.664l0.08-0.028
		c0.037,0.407,0.078,0.794,0.127,1.168c0.048,0.374,0.104,0.752,0.173,1.132c0.065,0.382,0.147,0.789,0.243,1.223
		c0.09,0.437,0.201,0.913,0.329,1.44l2.538,9.744h2.097l5.754-17.237h-1.995l-3.057,9.156c-0.267,0.793-0.492,1.499-0.68,2.123
		c-0.187,0.617-0.346,1.19-0.478,1.714c-0.134,0.528-0.252,1.048-0.36,1.56l-0.054,0.024c-0.046-0.488-0.102-0.979-0.17-1.466
		c-0.065-0.49-0.149-1.007-0.253-1.552c-0.102-0.539-0.232-1.139-0.395-1.791l-2.534-9.769h-2.327l-5.753,17.237H198.327
		L198.327,185.117z M212.146,184.172c0.211,0.216,0.521,0.414,0.92,0.589c0.4,0.178,0.862,0.322,1.386,0.435
		c0.527,0.107,1.081,0.166,1.663,0.179c0.974-0.004,1.865-0.141,2.672-0.412c0.806-0.274,1.508-0.647,2.116-1.135
		c0.607-0.486,1.096-1.049,1.467-1.688c0.373-0.644,0.619-1.339,0.725-2.086c0.102-0.702,0.064-1.335-0.103-1.889
		c-0.171-0.555-0.467-1.047-0.89-1.493c-0.427-0.442-0.965-0.852-1.618-1.221c-0.558-0.327-1.01-0.648-1.367-0.959
		c-0.351-0.312-0.597-0.647-0.741-1.007c-0.145-0.356-0.185-0.767-0.118-1.232c0.051-0.354,0.178-0.698,0.383-1.03
		c0.203-0.337,0.471-0.636,0.803-0.905c0.334-0.268,0.727-0.477,1.17-0.634c0.444-0.159,0.939-0.238,1.477-0.243
		c0.452-0.004,0.864,0.039,1.234,0.128c0.367,0.084,0.689,0.195,0.96,0.324c0.271,0.128,0.492,0.25,0.655,0.366l1.021-1.765
		c-0.178-0.133-0.427-0.265-0.744-0.396c-0.318-0.132-0.698-0.243-1.146-0.333c-0.448-0.089-0.952-0.137-1.515-0.142
		c-0.797,0-1.564,0.121-2.302,0.354c-0.732,0.233-1.399,0.574-2,1.016c-0.6,0.438-1.094,0.969-1.49,1.586
		c-0.391,0.623-0.65,1.311-0.764,2.083c-0.131,0.93,0.05,1.751,0.535,2.473c0.48,0.72,1.236,1.367,2.256,1.954
		c0.553,0.326,0.997,0.659,1.319,0.992c0.327,0.332,0.55,0.683,0.667,1.048c0.119,0.363,0.147,0.759,0.083,1.182
		c-0.08,0.52-0.247,0.974-0.509,1.376c-0.258,0.4-0.583,0.736-0.972,1.011c-0.39,0.279-0.816,0.482-1.284,0.623
		c-0.464,0.14-0.943,0.21-1.432,0.21c-0.72-0.003-1.379-0.108-1.977-0.311c-0.597-0.199-1.105-0.463-1.523-0.787L212.146,184.172
		L212.146,184.172z M227.406,185.117h2.123l5.131-15.397h5.063l0.623-1.84h-12.226l-0.623,1.84h5.039L227.406,185.117
		L227.406,185.117z M242.265,167.88l-5.753,17.237h2.124l5.752-17.237H242.265L242.265,167.88z M245.49,185.117h2.122l5.13-15.397
		h5.065l0.623-1.84h-12.226l-0.623,1.84h5.039L245.49,185.117L245.49,185.117z M260.347,167.88l-3.362,10.052
		c-0.135,0.399-0.248,0.803-0.345,1.211c-0.098,0.404-0.174,0.793-0.229,1.168c-0.123,0.887-0.106,1.654,0.058,2.292
		c0.164,0.646,0.442,1.171,0.839,1.586c0.396,0.413,0.885,0.716,1.467,0.918c0.58,0.196,1.23,0.294,1.943,0.294
		c1.223,0.003,2.348-0.235,3.378-0.729c1.029-0.491,1.956-1.266,2.772-2.327c0.818-1.065,1.516-2.447,2.098-4.156l3.451-10.308
		h-2.121l-3.441,10.23c-0.437,1.292-0.937,2.341-1.505,3.145c-0.568,0.807-1.198,1.4-1.883,1.775
		c-0.686,0.375-1.424,0.56-2.207,0.554c-0.643,0-1.184-0.124-1.626-0.375c-0.445-0.248-0.763-0.618-0.956-1.108
		c-0.194-0.495-0.238-1.109-0.136-1.842c0.052-0.358,0.121-0.722,0.211-1.087c0.088-0.367,0.191-0.729,0.307-1.086l3.412-10.206
		H260.347L260.347,167.88z M273.496,185.117h2.122l5.13-15.397h5.064l0.623-1.84h-12.227l-0.623,1.84h5.04L273.496,185.117
		L273.496,185.117z M289.184,185.4c1.183-0.005,2.297-0.219,3.34-0.634c1.049-0.419,2.012-1.012,2.889-1.772
		c0.586-0.514,1.122-1.093,1.607-1.741c0.485-0.649,0.913-1.341,1.283-2.071c0.368-0.73,0.677-1.479,0.923-2.248
		c0.248-0.767,0.425-1.526,0.532-2.276c0.107-0.741,0.134-1.457,0.075-2.147c-0.058-0.689-0.21-1.335-0.452-1.928
		c-0.242-0.592-0.591-1.111-1.038-1.559c-0.452-0.448-1.015-0.794-1.689-1.046c-0.677-0.248-1.479-0.375-2.401-0.379
		c-0.729,0-1.456,0.097-2.179,0.286c-0.72,0.187-1.416,0.456-2.084,0.802c-0.667,0.346-1.286,0.759-1.853,1.241
		c-0.6,0.52-1.152,1.111-1.653,1.768c-0.504,0.656-0.949,1.355-1.338,2.097c-0.394,0.747-0.714,1.506-0.972,2.284
		c-0.256,0.775-0.445,1.549-0.555,2.316c-0.105,0.736-0.123,1.445-0.05,2.132c0.066,0.69,0.229,1.323,0.491,1.912
		c0.261,0.594,0.615,1.108,1.073,1.548c0.46,0.442,1.02,0.788,1.689,1.035c0.665,0.248,1.445,0.376,2.336,0.381H289.184
		L289.184,185.4z M289.697,183.609c-0.834-0.004-1.521-0.155-2.062-0.447c-0.542-0.294-0.96-0.691-1.249-1.193
		c-0.284-0.51-0.467-1.083-0.541-1.727c-0.067-0.643-0.056-1.323,0.05-2.029c0.088-0.606,0.239-1.236,0.448-1.893
		c0.209-0.652,0.467-1.299,0.786-1.939c0.313-0.639,0.673-1.24,1.079-1.803c0.403-0.563,0.841-1.054,1.317-1.476
		c0.605-0.532,1.258-0.945,1.966-1.248c0.711-0.307,1.447-0.462,2.221-0.466c0.75,0.004,1.372,0.111,1.871,0.324
		c0.5,0.209,0.892,0.494,1.185,0.857c0.293,0.365,0.502,0.775,0.628,1.24c0.13,0.462,0.193,0.94,0.201,1.45
		c0.004,0.501-0.029,1.004-0.105,1.5c-0.087,0.605-0.238,1.239-0.443,1.896c-0.209,0.662-0.474,1.312-0.784,1.956
		c-0.315,0.647-0.666,1.254-1.066,1.816c-0.396,0.562-0.825,1.055-1.29,1.468c-0.619,0.54-1.285,0.964-1.996,1.26
		c-0.712,0.298-1.441,0.449-2.188,0.453H289.697L289.697,183.609z M314.204,179.669l-0.092,5.448h2.173l0.099-17.237h-2.505
		L302.5,185.117h2.225l3.52-5.448H314.204L314.204,179.669z M309.278,177.984l3.28-5.016c0.33-0.524,0.646-1.052,0.953-1.581
		c0.301-0.531,0.607-1.052,0.906-1.565h0.077c-0.024,0.339-0.044,0.693-0.065,1.068c-0.02,0.374-0.039,0.741-0.057,1.105
		c-0.018,0.363-0.035,0.695-0.053,0.999l-0.027,4.989H309.278L309.278,177.984z M318.549,185.015c0.365,0.054,0.768,0.094,1.22,0.13
		c0.446,0.034,0.921,0.061,1.416,0.076c0.497,0.018,0.995,0.027,1.502,0.027c1.656,0.002,3.156-0.189,4.495-0.582
		c1.342-0.387,2.568-0.997,3.677-1.825c0.617-0.476,1.188-1.018,1.7-1.626c0.518-0.606,0.971-1.264,1.371-1.966
		c0.395-0.704,0.722-1.437,0.984-2.194c0.263-0.764,0.45-1.536,0.562-2.32c0.101-0.724,0.127-1.381,0.07-1.97
		c-0.056-0.588-0.17-1.107-0.346-1.561c-0.18-0.453-0.396-0.833-0.662-1.149c-0.538-0.745-1.316-1.314-2.33-1.709
		c-1.016-0.394-2.246-0.588-3.684-0.593c-0.752,0-1.496,0.03-2.229,0.093c-0.73,0.059-1.433,0.15-2.118,0.264L318.549,185.015
		L318.549,185.015z M325.797,169.67c0.214-0.043,0.458-0.077,0.725-0.102c0.274-0.029,0.548-0.048,0.836-0.06
		c0.287-0.014,0.557-0.019,0.817-0.019c1.069,0.005,1.957,0.137,2.657,0.405c0.705,0.266,1.242,0.636,1.625,1.118
		c0.384,0.481,0.627,1.045,0.737,1.693c0.111,0.646,0.106,1.357-0.008,2.13c-0.117,0.813-0.316,1.606-0.605,2.38
		c-0.286,0.77-0.652,1.493-1.099,2.173c-0.447,0.679-0.969,1.282-1.565,1.815c-0.819,0.744-1.765,1.309-2.835,1.697
		c-1.07,0.383-2.291,0.579-3.656,0.579c-0.323,0-0.676-0.009-1.061-0.027c-0.383-0.016-0.766-0.049-1.146-0.102L325.797,169.67
		L325.797,169.67z M340.864,185.117l11.533-17.237h-2.328l-7.049,10.768c-0.584,0.899-1.073,1.688-1.468,2.362
		c-0.396,0.673-0.732,1.277-1.022,1.806h-0.077c0.054-0.369,0.094-0.739,0.123-1.116c0.027-0.375,0.049-0.785,0.066-1.228
		c0.021-0.448,0.039-0.958,0.062-1.543l0.336-11.049h-2.175l-0.355,17.237H340.864L340.864,185.117z M360.522,175.221h-6.267
		l1.842-5.526h6.651l0.62-1.814h-8.8l-5.752,17.237H358l0.619-1.813h-7.059l2.08-6.293h6.267L360.522,175.221L360.522,175.221z
		 M362.834,185.117l3.008-9.001c0.258-0.782,0.489-1.502,0.698-2.16c0.205-0.657,0.394-1.275,0.562-1.854
		c0.164-0.578,0.316-1.133,0.452-1.664l0.081-0.028c0.035,0.407,0.077,0.794,0.125,1.168c0.05,0.374,0.105,0.752,0.174,1.132
		c0.066,0.382,0.147,0.789,0.242,1.223c0.092,0.437,0.203,0.913,0.33,1.44l2.538,9.744h2.097l5.752-17.237h-1.994l-3.056,9.156
		c-0.267,0.793-0.491,1.499-0.681,2.123c-0.187,0.617-0.345,1.19-0.477,1.714c-0.135,0.528-0.253,1.048-0.36,1.56l-0.055,0.024
		c-0.044-0.488-0.103-0.979-0.168-1.466c-0.067-0.49-0.149-1.007-0.257-1.552c-0.1-0.539-0.232-1.139-0.393-1.791l-2.533-9.769
		h-2.328l-5.753,17.237H362.834L362.834,185.117z M379.996,185.117h2.123l5.131-15.397h5.063l0.622-1.84H380.71l-0.622,1.84h5.038
		L379.996,185.117L379.996,185.117z M394.853,167.88l-5.752,17.237h2.124l5.752-17.237H394.853L394.853,167.88z M394.736,184.172
		c0.211,0.216,0.519,0.414,0.922,0.589c0.4,0.178,0.86,0.322,1.385,0.435c0.526,0.107,1.082,0.166,1.664,0.179
		c0.972-0.004,1.863-0.141,2.672-0.412c0.807-0.274,1.508-0.647,2.115-1.135c0.607-0.486,1.097-1.049,1.467-1.688
		c0.373-0.644,0.618-1.339,0.727-2.086c0.101-0.702,0.063-1.335-0.104-1.889c-0.171-0.555-0.466-1.047-0.89-1.493
		c-0.427-0.442-0.963-0.852-1.618-1.221c-0.558-0.327-1.013-0.648-1.367-0.959c-0.353-0.312-0.597-0.647-0.742-1.007
		c-0.144-0.356-0.185-0.767-0.115-1.232c0.048-0.354,0.175-0.698,0.381-1.03c0.202-0.337,0.471-0.636,0.804-0.905
		c0.334-0.268,0.725-0.477,1.17-0.634c0.444-0.159,0.939-0.238,1.477-0.243c0.452-0.004,0.862,0.039,1.234,0.128
		c0.367,0.084,0.688,0.195,0.959,0.324c0.271,0.128,0.493,0.25,0.655,0.366l1.021-1.765c-0.177-0.133-0.428-0.265-0.744-0.396
		c-0.317-0.132-0.698-0.243-1.146-0.333c-0.446-0.089-0.951-0.137-1.513-0.142c-0.798,0-1.564,0.121-2.302,0.354
		c-0.733,0.233-1.401,0.574-2,1.016c-0.602,0.438-1.094,0.969-1.49,1.586c-0.394,0.623-0.649,1.311-0.764,2.083
		c-0.13,0.93,0.049,1.751,0.533,2.473c0.482,0.72,1.236,1.367,2.258,1.954c0.553,0.326,0.995,0.659,1.318,0.992
		c0.327,0.332,0.55,0.683,0.668,1.048c0.119,0.363,0.146,0.759,0.08,1.182c-0.078,0.52-0.246,0.974-0.508,1.376
		c-0.258,0.4-0.582,0.736-0.972,1.011c-0.391,0.279-0.816,0.482-1.284,0.623c-0.463,0.14-0.943,0.21-1.434,0.21
		c-0.72-0.003-1.377-0.108-1.976-0.311c-0.598-0.199-1.106-0.463-1.524-0.787L394.736,184.172L394.736,184.172z M409.997,185.117
		h2.122l5.131-15.397h5.063l0.622-1.84h-12.224l-0.624,1.84h5.039L409.997,185.117L409.997,185.117z M427.941,179.669l-0.092,5.448
		h2.173l0.102-17.237h-2.507l-11.381,17.237h2.227l3.52-5.448H427.941L427.941,179.669z M423.018,177.984l3.279-5.016
		c0.33-0.524,0.646-1.052,0.951-1.581c0.305-0.531,0.609-1.052,0.908-1.565h0.075c-0.021,0.339-0.043,0.693-0.063,1.068
		c-0.019,0.374-0.039,0.741-0.057,1.105c-0.019,0.363-0.035,0.695-0.053,0.999l-0.027,4.989H423.018L423.018,177.984z
		 M436.527,184.172c0.212,0.216,0.52,0.414,0.922,0.589c0.399,0.178,0.862,0.322,1.387,0.435c0.525,0.107,1.08,0.166,1.662,0.179
		c0.973-0.004,1.865-0.141,2.672-0.412c0.808-0.274,1.51-0.647,2.116-1.135c0.606-0.486,1.097-1.049,1.466-1.688
		c0.375-0.644,0.619-1.339,0.727-2.086c0.1-0.702,0.064-1.335-0.104-1.889c-0.174-0.555-0.468-1.047-0.89-1.493
		c-0.427-0.442-0.964-0.852-1.619-1.221c-0.557-0.327-1.01-0.648-1.365-0.959c-0.353-0.312-0.598-0.647-0.743-1.007
		c-0.144-0.356-0.186-0.767-0.117-1.232c0.05-0.354,0.178-0.698,0.383-1.03c0.201-0.337,0.473-0.636,0.803-0.905
		c0.333-0.268,0.726-0.477,1.172-0.634c0.442-0.159,0.937-0.238,1.474-0.243c0.453-0.004,0.865,0.039,1.236,0.128
		c0.366,0.084,0.688,0.195,0.958,0.324c0.273,0.128,0.492,0.25,0.655,0.366l1.022-1.765c-0.178-0.133-0.428-0.265-0.745-0.396
		c-0.319-0.132-0.698-0.243-1.146-0.333c-0.447-0.089-0.953-0.137-1.518-0.142c-0.794,0-1.561,0.121-2.299,0.354
		c-0.732,0.233-1.399,0.574-2,1.016c-0.601,0.438-1.094,0.969-1.49,1.586c-0.393,0.623-0.648,1.311-0.765,2.083
		c-0.13,0.93,0.052,1.751,0.535,2.473c0.481,0.72,1.235,1.367,2.257,1.954c0.554,0.326,0.996,0.659,1.318,0.992
		c0.327,0.332,0.552,0.683,0.668,1.048c0.119,0.363,0.146,0.759,0.082,1.182c-0.08,0.52-0.247,0.974-0.51,1.376
		c-0.258,0.4-0.583,0.736-0.972,1.011c-0.39,0.279-0.813,0.482-1.283,0.623c-0.464,0.14-0.943,0.21-1.434,0.21
		c-0.72-0.003-1.378-0.108-1.976-0.311c-0.599-0.199-1.105-0.463-1.522-0.787L436.527,184.172L436.527,184.172z M459.043,179.669
		l-0.092,5.448h2.173l0.101-17.237h-2.508l-11.378,17.237h2.224l3.522-5.448H459.043L459.043,179.669z M454.119,177.984l3.279-5.016
		c0.331-0.524,0.646-1.052,0.951-1.581c0.303-0.531,0.608-1.052,0.907-1.565h0.077c-0.021,0.339-0.045,0.693-0.065,1.068
		c-0.018,0.374-0.038,0.741-0.056,1.105c-0.018,0.363-0.035,0.695-0.054,0.999l-0.027,4.989H454.119L454.119,177.984z
		 M458.102,166.831c0.14-0.349,0.292-0.618,0.466-0.81c0.168-0.191,0.356-0.291,0.562-0.291c0.196-0.007,0.374,0.034,0.522,0.125
		c0.15,0.088,0.32,0.204,0.512,0.337c0.149,0.103,0.3,0.189,0.437,0.268c0.139,0.077,0.292,0.136,0.452,0.179
		c0.16,0.044,0.354,0.064,0.57,0.064c0.575-0.004,1.066-0.213,1.482-0.634c0.41-0.418,0.74-1.024,0.994-1.82h-1.177
		c-0.149,0.346-0.312,0.601-0.481,0.771c-0.17,0.165-0.355,0.252-0.561,0.252c-0.19-0.004-0.372-0.048-0.543-0.136
		c-0.172-0.087-0.344-0.193-0.516-0.325c-0.135-0.102-0.274-0.196-0.408-0.277c-0.137-0.08-0.29-0.146-0.459-0.187
		c-0.164-0.048-0.365-0.073-0.592-0.073c-0.35,0.005-0.684,0.112-1.002,0.327c-0.311,0.215-0.594,0.512-0.843,0.896
		c-0.252,0.385-0.46,0.828-0.62,1.335H458.102L458.102,166.831z M469.754,185.4c1.182-0.005,2.294-0.219,3.339-0.634
		c1.049-0.419,2.013-1.012,2.889-1.772c0.586-0.514,1.122-1.093,1.606-1.741c0.486-0.649,0.912-1.341,1.283-2.071
		c0.369-0.73,0.678-1.479,0.924-2.248c0.246-0.767,0.424-1.526,0.532-2.276c0.106-0.741,0.132-1.457,0.075-2.147
		c-0.059-0.689-0.209-1.335-0.452-1.928c-0.243-0.592-0.591-1.111-1.037-1.559c-0.453-0.448-1.017-0.794-1.692-1.046
		c-0.677-0.248-1.476-0.375-2.401-0.379c-0.729,0-1.453,0.097-2.175,0.286c-0.723,0.187-1.419,0.456-2.086,0.802
		s-1.284,0.759-1.854,1.241c-0.598,0.52-1.153,1.111-1.65,1.768c-0.504,0.656-0.951,1.355-1.339,2.097
		c-0.393,0.747-0.713,1.506-0.972,2.284c-0.256,0.775-0.445,1.549-0.554,2.316c-0.106,0.736-0.123,1.445-0.053,2.132
		c0.067,0.69,0.232,1.323,0.494,1.912c0.26,0.594,0.615,1.108,1.072,1.548c0.46,0.442,1.021,0.788,1.688,1.035
		c0.667,0.248,1.447,0.376,2.337,0.381H469.754L469.754,185.4z M470.268,183.609c-0.835-0.004-1.521-0.155-2.063-0.447
		c-0.541-0.294-0.958-0.691-1.247-1.193c-0.287-0.51-0.468-1.083-0.54-1.727c-0.071-0.643-0.058-1.323,0.048-2.029
		c0.088-0.606,0.236-1.236,0.447-1.893c0.208-0.652,0.468-1.299,0.785-1.939c0.314-0.639,0.673-1.24,1.078-1.803
		c0.404-0.563,0.842-1.054,1.322-1.476c0.604-0.532,1.256-0.945,1.965-1.248c0.708-0.307,1.446-0.462,2.221-0.466
		c0.749,0.004,1.372,0.111,1.869,0.324c0.499,0.209,0.893,0.494,1.188,0.857c0.291,0.365,0.502,0.775,0.626,1.24
		c0.128,0.462,0.193,0.94,0.201,1.45c0.004,0.501-0.029,1.004-0.106,1.5c-0.085,0.605-0.237,1.239-0.442,1.896
		c-0.21,0.662-0.474,1.312-0.784,1.956c-0.314,0.647-0.666,1.254-1.067,1.816c-0.396,0.562-0.825,1.055-1.288,1.468
		c-0.621,0.54-1.287,0.964-1.998,1.26c-0.714,0.298-1.441,0.449-2.188,0.453H470.268L470.268,183.609z M484.526,185.117h2.097
		l2.301-6.93c0.264,0.04,0.537,0.069,0.822,0.096c0.287,0.018,0.597,0.031,0.924,0.031c0.654,0,1.302-0.058,1.95-0.183
		c0.644-0.118,1.266-0.303,1.86-0.551c0.598-0.243,1.145-0.555,1.647-0.929c0.425-0.312,0.824-0.69,1.199-1.143
		c0.38-0.453,0.702-0.964,0.971-1.525c0.263-0.562,0.449-1.166,0.545-1.808c0.098-0.677,0.075-1.27-0.063-1.776
		c-0.141-0.512-0.389-0.953-0.744-1.318c-0.284-0.307-0.633-0.559-1.045-0.755c-0.418-0.195-0.879-0.34-1.388-0.435
		c-0.507-0.095-1.038-0.14-1.597-0.14c-0.47,0-0.937,0.016-1.387,0.045c-0.457,0.029-0.891,0.073-1.293,0.13
		c-0.409,0.05-0.776,0.113-1.106,0.182L484.526,185.117L484.526,185.117z M491.764,169.646c0.2-0.053,0.462-0.096,0.781-0.127
		c0.317-0.037,0.69-0.054,1.112-0.054c0.667-0.004,1.235,0.095,1.725,0.287c0.481,0.195,0.844,0.502,1.077,0.925
		c0.237,0.423,0.307,0.972,0.215,1.653c-0.089,0.609-0.289,1.173-0.596,1.684c-0.302,0.512-0.694,0.959-1.177,1.339
		c-0.483,0.38-1.037,0.668-1.66,0.877c-0.625,0.209-1.302,0.316-2.036,0.321c-0.301,0-0.59-0.01-0.859-0.029
		c-0.271-0.021-0.551-0.06-0.83-0.124L491.764,169.646L491.764,169.646z M506.102,179.669l-0.092,5.448h2.175l0.101-17.237h-2.507
		l-11.379,17.237h2.224l3.52-5.448H506.102L506.102,179.669z M501.18,177.984l3.278-5.016c0.331-0.524,0.646-1.052,0.951-1.581
		c0.305-0.531,0.608-1.052,0.907-1.565h0.078c-0.023,0.339-0.046,0.693-0.064,1.068c-0.021,0.374-0.038,0.741-0.058,1.105
		c-0.018,0.363-0.036,0.695-0.054,0.999l-0.026,4.989H501.18L501.18,177.984z M515.395,167.88l-3.362,10.052
		c-0.136,0.399-0.249,0.803-0.347,1.211c-0.097,0.404-0.173,0.793-0.227,1.168c-0.122,0.887-0.107,1.654,0.058,2.292
		c0.163,0.646,0.442,1.171,0.838,1.586c0.396,0.413,0.886,0.716,1.467,0.918c0.583,0.196,1.231,0.294,1.942,0.294
		c1.226,0.003,2.35-0.235,3.38-0.729c1.03-0.491,1.956-1.266,2.774-2.327c0.818-1.065,1.516-2.447,2.098-4.156l3.451-10.308h-2.123
		l-3.439,10.23c-0.439,1.292-0.938,2.341-1.507,3.145c-0.567,0.807-1.197,1.4-1.884,1.775c-0.684,0.375-1.422,0.56-2.206,0.554
		c-0.642,0-1.187-0.124-1.626-0.375c-0.446-0.248-0.764-0.618-0.958-1.108c-0.192-0.495-0.235-1.109-0.137-1.842
		c0.054-0.358,0.123-0.722,0.213-1.087c0.088-0.367,0.19-0.729,0.306-1.086l3.411-10.206H515.395L515.395,167.88z M525.551,185.117
		h9.055l0.621-1.839h-6.956l5.155-15.398h-2.123L525.551,185.117L525.551,185.117z M542.672,185.4
		c1.182-0.005,2.296-0.219,3.34-0.634c1.048-0.419,2.011-1.012,2.887-1.772c0.589-0.514,1.123-1.093,1.608-1.741
		c0.484-0.649,0.913-1.341,1.281-2.071c0.37-0.73,0.679-1.479,0.926-2.248c0.247-0.767,0.424-1.526,0.53-2.276
		c0.107-0.741,0.135-1.457,0.076-2.147c-0.06-0.689-0.211-1.335-0.451-1.928c-0.243-0.592-0.592-1.111-1.037-1.559
		c-0.453-0.448-1.017-0.794-1.691-1.046c-0.678-0.248-1.479-0.375-2.4-0.379c-0.73,0-1.457,0.097-2.178,0.286
		c-0.723,0.187-1.418,0.456-2.087,0.802c-0.666,0.346-1.284,0.759-1.851,1.241c-0.601,0.52-1.153,1.111-1.654,1.768
		c-0.504,0.656-0.95,1.355-1.338,2.097c-0.394,0.747-0.715,1.506-0.973,2.284c-0.255,0.775-0.442,1.549-0.554,2.316
		c-0.105,0.736-0.123,1.445-0.05,2.132c0.066,0.69,0.231,1.323,0.491,1.912c0.26,0.594,0.617,1.108,1.073,1.548
		c0.461,0.442,1.021,0.788,1.689,1.035c0.666,0.248,1.446,0.376,2.336,0.381H542.672L542.672,185.4z M543.185,183.609
		c-0.835-0.004-1.522-0.155-2.061-0.447c-0.542-0.294-0.96-0.691-1.25-1.193c-0.284-0.51-0.466-1.083-0.539-1.727
		c-0.069-0.643-0.058-1.323,0.047-2.029c0.089-0.606,0.24-1.236,0.449-1.893c0.209-0.652,0.466-1.299,0.786-1.939
		c0.312-0.639,0.672-1.24,1.077-1.803c0.405-0.563,0.842-1.054,1.32-1.476c0.605-0.532,1.257-0.945,1.966-1.248
		c0.71-0.307,1.445-0.462,2.22-0.466c0.75,0.004,1.374,0.111,1.872,0.324c0.498,0.209,0.891,0.494,1.186,0.857
		c0.293,0.365,0.501,0.775,0.627,1.24c0.129,0.462,0.192,0.94,0.201,1.45c0.003,0.501-0.03,1.004-0.105,1.5
		c-0.088,0.605-0.238,1.239-0.444,1.896c-0.209,0.662-0.474,1.312-0.784,1.956c-0.312,0.647-0.666,1.254-1.065,1.816
		c-0.397,0.562-0.827,1.055-1.29,1.468c-0.619,0.54-1.286,0.964-1.998,1.26c-0.712,0.298-1.44,0.449-2.187,0.453H543.185
		L543.185,183.609z"/>
	<path fill="#FFFFFF" d="M344.493,98.185l36.876-2.277c-0.423,5.911,0.278,10.41,2.067,13.522c2.901,5.016,8.049,7.496,15.372,7.496
		c5.449,0,9.915-1.269,13.406-3.833c3.461-2.567,5.536-5.537,6.221-8.908c0.649-3.201-0.147-6.085-2.457-8.622
		c-2.312-2.537-8.341-4.93-18.146-7.178c-16.013-3.777-26.965-8.765-32.844-15.02c-5.938-6.257-7.923-14.215-5.957-23.901
		c1.295-6.372,4.365-12.397,9.202-18.047c4.838-5.651,11.276-10.091,19.345-13.349c8.066-3.229,18.543-4.843,31.432-4.843
		c15.826,0,27.309,2.94,34.417,8.822c7.109,5.881,10.136,15.25,9.116,28.08l-36.496,2.105c0.179-5.564-1.012-9.63-3.582-12.167
		c-2.546-2.508-6.527-3.776-11.918-3.776c-4.469,0-8,0.923-10.636,2.825c-2.631,1.874-4.223,4.18-4.772,6.891
		c-0.399,1.96,0.165,3.719,1.689,5.304c1.483,1.644,5.443,3.144,11.932,4.555c15.99,3.604,27.212,7.266,33.698,10.956
		c6.487,3.69,10.838,8.246,13.011,13.723c2.18,5.448,2.611,11.561,1.234,18.337c-1.61,7.927-5.317,15.25-11.058,21.938
		c-5.746,6.719-12.919,11.793-21.521,15.253c-8.574,3.458-18.871,5.188-30.865,5.188c-21.046,0-34.814-4.037-41.264-12.167
		C345.512,120.989,343.019,110.697,344.493,98.185L344.493,98.185z M468.531,15.329h63.598c13.84,0,23.552,3.286,29.101,9.888
		c5.556,6.573,7.105,15.972,4.641,28.109c-2.543,12.512-8.275,22.286-17.23,29.32c-8.952,7.035-21.142,10.551-36.565,10.551h-20.931
		l-9.335,45.955h-38.432L468.531,15.329L468.531,15.329z M496.238,68.115h9.37c7.38,0,12.799-1.269,16.318-3.834
		c3.489-2.566,5.657-5.853,6.466-9.831c0.791-3.893,0.166-7.208-1.883-9.889c-2.015-2.71-6.614-4.065-13.762-4.065h-10.901
		L496.238,68.115L496.238,68.115z"/>
	<path fill="#FFFFFF" d="M228.429,13.224h38.344l-38.507,123.825h-38.344L228.429,13.224L228.429,13.224z M314.039,116.607h-43.592
		l-12.354,20.441H219l85.04-123.825h41.717l8.053,123.825h-40.046L314.039,116.607L314.039,116.607z M314.352,89.824l0.15-44.514
		L287.05,89.824H314.352L314.352,89.824z"/>
</g>
<g>
	<g>
		<g>
			<path fill="#FFFFFF" d="M253.09,247.707c-1.321-0.647-2.996-0.972-5.035-0.979c-1.12,0-2.208,0.158-3.265,0.475
				c-1.055,0.311-2.052,0.763-2.982,1.361c-0.936,0.593-1.778,1.32-2.533,2.176c-0.755,0.852-1.393,1.825-1.917,2.913
				c-0.52,1.087-0.898,2.281-1.131,3.58c-0.281,1.629-0.3,3.095-0.046,4.394c0.255,1.299,0.759,2.404,1.515,3.32
				c0.753,0.922,1.741,1.62,2.964,2.108c1.222,0.488,2.662,0.732,4.32,0.736c1.325-0.004,2.57-0.189,3.738-0.563
				c1.167-0.381,2.232-0.923,3.19-1.64c0.958-0.715,1.783-1.582,2.481-2.604c0.696-1.019,1.233-2.177,1.607-3.476h-6.307
				c-0.193,0.646-0.468,1.225-0.818,1.733c-0.348,0.51-0.783,0.908-1.309,1.203c-0.519,0.298-1.128,0.452-1.833,0.456
				c-0.824-0.004-1.472-0.158-1.941-0.459c-0.471-0.297-0.797-0.698-0.985-1.213c-0.19-0.51-0.277-1.093-0.269-1.742
				c0.01-0.646,0.079-1.325,0.208-2.033c0.232-1.287,0.57-2.365,1.02-3.229c0.444-0.864,0.98-1.519,1.612-1.953
				c0.625-0.435,1.324-0.654,2.099-0.654c1.033,0.005,1.805,0.293,2.324,0.858c0.515,0.565,0.731,1.375,0.653,2.421h6.224
				c0.125-1.717-0.111-3.186-0.709-4.402C255.369,249.282,254.411,248.35,253.09,247.707z"/>
			<polygon fill="#FFFFFF" points="284.405,262.598 287.111,247.257 280.552,247.257 277.023,267.264 292.586,267.264 
				293.409,262.598 			"/>
			<polygon fill="#FFFFFF" points="216.77,255.565 209.6,255.565 210.244,251.926 219.246,251.926 220.07,247.257 204.51,247.257 
				200.98,267.264 207.539,267.264 208.779,260.233 215.949,260.233 			"/>
			<path fill="#FFFFFF" d="M225.083,247.257l-10.698,20.007h6.418l1.219-2.64h6.53l0.311,2.64h6.529l-3.64-20.007H225.083z
				 M224.005,260.456l3.293-7.171l0.848,7.171H224.005z"/>
			<path fill="#FFFFFF" d="M271.789,247.257l-2.113,11.978c-0.12,0.728-0.323,1.368-0.606,1.912c-0.277,0.55-0.67,0.977-1.173,1.288
				c-0.499,0.305-1.143,0.464-1.925,0.468c-0.666-0.004-1.191-0.102-1.566-0.298c-0.375-0.192-0.643-0.458-0.792-0.796
				c-0.152-0.336-0.228-0.727-0.228-1.171c0.006-0.44,0.057-0.909,0.149-1.403l2.11-11.978h-6.557l-1.991,11.282
				c-0.301,1.718-0.343,3.167-0.129,4.354c0.212,1.188,0.662,2.137,1.356,2.858c0.694,0.718,1.606,1.24,2.746,1.563
				c1.139,0.325,2.487,0.482,4.039,0.478c2.209,0.005,4.08-0.316,5.612-0.963c1.537-0.651,2.767-1.658,3.687-3.02
				c0.923-1.363,1.57-3.107,1.941-5.242l1.996-11.311H271.789z"/>
			<polygon fill="#FFFFFF" points="372.027,251.926 372.852,247.257 356.541,247.257 353.01,267.264 369.711,267.264 
				370.534,262.598 360.393,262.598 360.942,259.456 369.198,259.456 370.022,254.787 361.768,254.787 362.273,251.926 			"/>
			<path fill="#FFFFFF" d="M354.031,252.568c-0.267-1.208-0.785-2.202-1.554-2.986c-0.771-0.786-1.76-1.37-2.979-1.756
				c-1.218-0.38-2.635-0.569-4.253-0.569h-8.779l-3.528,20.007h8.613c1.61,0.006,3.099-0.186,4.471-0.569
				c1.365-0.384,2.587-0.991,3.668-1.815c1.072-0.827,1.983-1.903,2.714-3.23c0.73-1.326,1.263-2.928,1.601-4.805
				C354.292,255.201,354.302,253.774,354.031,252.568z M347.383,257.207c-0.221,1.255-0.583,2.281-1.091,3.075
				c-0.498,0.796-1.133,1.384-1.902,1.758c-0.769,0.376-1.662,0.562-2.68,0.558h-1.389l1.879-10.672h1.25
				c0.877-0.006,1.607,0.076,2.196,0.236c0.586,0.167,1.04,0.445,1.359,0.839c0.318,0.398,0.504,0.933,0.564,1.62
				C347.632,255.306,347.568,256.168,347.383,257.207z"/>
			<path fill="#FFFFFF" d="M314.47,256.844c0.286-1.643,0.294-3.069,0.027-4.275c-0.27-1.208-0.788-2.202-1.558-2.986
				c-0.769-0.786-1.761-1.37-2.976-1.756c-1.22-0.38-2.638-0.569-4.253-0.569h-8.779l-3.529,20.007h8.613
				c1.611,0.006,3.1-0.186,4.469-0.569c1.367-0.384,2.592-0.991,3.67-1.815c1.074-0.827,1.979-1.903,2.712-3.23
				C313.599,260.322,314.131,258.721,314.47,256.844z M307.848,257.207c-0.225,1.255-0.585,2.281-1.089,3.075
				c-0.5,0.796-1.136,1.384-1.903,1.758c-0.77,0.376-1.663,0.562-2.684,0.558h-1.39l1.881-10.672h1.251
				c0.874-0.006,1.608,0.076,2.194,0.236c0.591,0.167,1.042,0.445,1.361,0.839c0.316,0.398,0.507,0.933,0.566,1.62
				C308.097,255.306,308.032,256.168,307.848,257.207z"/>
			<path fill="#FFFFFF" d="M322.367,247.257l-10.699,20.007h6.421l1.217-2.64h6.529l0.312,2.64h6.529l-3.639-20.007H322.367z
				 M321.287,260.456l3.296-7.171l0.846,7.171H321.287z"/>
		</g>
		<g>
			<path fill="#FFFFFF" d="M257.854,275.259c-1.102-1.129-2.524-1.965-4.269-2.515c-1.746-0.546-3.777-0.817-6.094-0.817h-12.585
				l-5.059,28.676h12.347c2.31,0.008,4.441-0.266,6.405-0.817c1.958-0.549,3.711-1.419,5.259-2.6c1.54-1.19,2.84-2.729,3.889-4.635
				c1.049-1.899,1.812-4.196,2.297-6.885c0.412-2.357,0.425-4.4,0.04-6.128C259.7,277.808,258.955,276.38,257.854,275.259z
				 M250.552,286.185c-0.317,1.798-0.836,3.273-1.56,4.409c-0.717,1.14-1.626,1.982-2.729,2.521
				c-1.102,0.537-2.382,0.802-3.843,0.796h-1.991l2.694-15.294h1.793c1.254-0.007,2.304,0.106,3.145,0.338
				c0.845,0.24,1.495,0.639,1.953,1.201c0.452,0.57,0.723,1.342,0.811,2.323C250.909,283.464,250.817,284.696,250.552,286.185z"/>
			<path fill="#FFFFFF" d="M454.092,271.927h-9.561l-15.334,28.676h9.202l1.743-3.784h9.361l0.442,3.784h9.362L454.092,271.927z
				 M442.984,290.844l4.721-10.274l1.213,10.274H442.984z"/>
			<polygon fill="#FFFFFF" points="281.242,271.927 272.659,291.002 271.007,271.927 261.527,271.927 266.267,300.603 
				275.706,300.603 290.721,271.927 			"/>
			<path fill="#FFFFFF" d="M214.698,271.927l-15.335,28.676h9.201l1.746-3.784h9.36l0.444,3.784h9.36l-5.217-28.676H214.698z
				 M213.149,290.844l4.72-10.274l1.215,10.274H213.149z"/>
			<polygon fill="#FFFFFF" points="298.324,289.411 310.154,289.411 311.337,282.72 299.506,282.72 300.231,278.617 314.21,278.617 
				315.389,271.927 292.012,271.927 286.955,300.603 310.891,300.603 312.073,293.911 297.535,293.911 			"/>
			<polygon fill="#FFFFFF" points="374.743,271.927 369.687,300.603 379.086,300.603 384.144,271.927 			"/>
			<polygon fill="#FFFFFF" points="438.183,271.927 411.898,271.927 410.567,279.453 419.013,279.453 415.28,300.603 
				424.682,300.603 428.41,279.453 436.855,279.453 			"/>
			<path fill="#FFFFFF" d="M407.467,273.823c-0.844-0.829-1.957-1.472-3.34-1.943c-1.389-0.464-3.074-0.704-5.059-0.709
				c-1.8,0-3.49,0.191-5.064,0.569c-1.58,0.384-2.996,0.962-4.242,1.727c-1.248,0.763-2.282,1.718-3.093,2.859
				c-0.818,1.142-1.367,2.476-1.639,4.004c-0.208,1.208-0.208,2.262,0.007,3.158c0.21,0.904,0.575,1.669,1.107,2.311
				c0.524,0.637,1.162,1.182,1.905,1.626c0.744,0.439,1.547,0.811,2.402,1.115c0.862,0.3,1.726,0.564,2.602,0.784
				c0.87,0.221,1.707,0.434,2.489,0.626c0.79,0.197,1.48,0.408,2.079,0.644c0.603,0.23,1.063,0.51,1.374,0.834
				c0.312,0.333,0.426,0.731,0.353,1.211c-0.088,0.449-0.32,0.834-0.697,1.146c-0.374,0.313-0.869,0.553-1.481,0.717
				c-0.611,0.168-1.312,0.247-2.097,0.247c-0.466,0-0.922-0.062-1.368-0.179c-0.445-0.121-0.838-0.299-1.175-0.537
				c-0.358-0.242-0.646-0.546-0.844-0.926c-0.197-0.376-0.304-0.829-0.312-1.346h-9.001c-0.171,1.301-0.059,2.529,0.353,3.685
				c0.414,1.156,1.095,2.17,2.052,3.053c0.949,0.89,2.15,1.586,3.599,2.092c1.445,0.505,3.113,0.763,5.01,0.77
				c1.98,0,3.823-0.206,5.53-0.611c1.712-0.404,3.234-1.014,4.567-1.832c1.341-0.822,2.44-1.847,3.313-3.085
				c0.868-1.234,1.451-2.687,1.75-4.35c0.202-1.154,0.186-2.164-0.033-3.021c-0.212-0.855-0.592-1.6-1.119-2.217
				c-0.531-0.617-1.171-1.143-1.919-1.573c-0.745-0.432-1.548-0.795-2.403-1.103c-0.864-0.297-1.729-0.562-2.604-0.791
				c-0.869-0.225-1.699-0.436-2.481-0.643c-0.791-0.205-1.482-0.424-2.078-0.663c-0.598-0.247-1.057-0.523-1.366-0.858
				c-0.314-0.324-0.434-0.728-0.352-1.2c0.084-0.523,0.396-0.922,0.928-1.207c0.529-0.278,1.314-0.426,2.344-0.426
				c0.465,0,0.889,0.041,1.285,0.125c0.394,0.081,0.745,0.215,1.057,0.395c0.313,0.17,0.559,0.416,0.737,0.735
				c0.186,0.312,0.271,0.718,0.271,1.216h8.923c0.053-1.263-0.101-2.443-0.459-3.54
				C408.913,275.618,408.309,274.653,407.467,273.823z"/>
			<polygon fill="#FFFFFF" points="334.908,281.045 334.113,287.579 326.64,271.927 317.837,271.927 312.779,300.603 
				321.781,300.603 323.379,291.523 324.176,284.989 331.66,300.603 340.459,300.603 345.516,271.927 336.516,271.927 			"/>
			<polygon fill="#FFFFFF" points="373.133,271.927 346.848,271.927 345.521,279.453 353.962,279.453 350.234,300.603 
				359.634,300.603 363.362,279.453 371.808,279.453 			"/>
		</g>
		<g>
			<path fill="#FFFFFF" d="M293.6,312.467c-0.095-1.014-0.342-1.966-0.741-2.85c-0.394-0.881-0.95-1.659-1.673-2.325
				c-0.722-0.675-1.616-1.199-2.68-1.58c-1.063-0.379-2.313-0.572-3.744-0.578c-1.572,0.006-3.039,0.252-4.41,0.739
				c-1.365,0.49-2.597,1.186-3.688,2.096c-1.088,0.91-1.998,2.008-2.728,3.282c-0.725,1.276-1.23,2.701-1.519,4.282
				c-0.293,1.709-0.312,3.228-0.048,4.556c0.267,1.332,0.781,2.454,1.543,3.37c0.763,0.919,1.746,1.613,2.949,2.092
				c1.201,0.473,2.595,0.71,4.174,0.717c1.194,0,2.345-0.157,3.456-0.459c1.11-0.301,2.155-0.747,3.131-1.337
				c0.981-0.587,1.864-1.314,2.649-2.173c0.789-0.863,1.455-1.854,1.997-2.979c0.546-1.12,0.938-2.365,1.186-3.731
				C293.644,314.521,293.691,313.483,293.6,312.467z M286.877,315.589c-0.146,0.832-0.354,1.599-0.626,2.301
				c-0.268,0.701-0.608,1.308-1.016,1.829c-0.408,0.516-0.888,0.921-1.44,1.204c-0.555,0.287-1.186,0.431-1.896,0.436
				c-0.625-0.005-1.142-0.12-1.557-0.352c-0.41-0.232-0.729-0.546-0.962-0.94c-0.227-0.393-0.384-0.841-0.474-1.338
				c-0.082-0.497-0.115-1.017-0.092-1.555c0.023-0.539,0.078-1.068,0.172-1.585c0.089-0.511,0.219-1.032,0.391-1.552
				c0.17-0.521,0.389-1.023,0.649-1.493c0.265-0.48,0.581-0.905,0.943-1.28c0.366-0.376,0.786-0.675,1.266-0.89
				c0.472-0.218,1.005-0.329,1.607-0.333c0.58-0.015,1.071,0.081,1.48,0.283c0.405,0.2,0.735,0.484,0.983,0.846
				c0.254,0.361,0.436,0.787,0.549,1.262s0.172,0.981,0.168,1.521C287.023,314.493,286.975,315.035,286.877,315.589z"/>
			<path fill="#FFFFFF" d="M312.322,307.059c-0.602-0.47-1.457-0.817-2.557-1.051c-1.104-0.233-2.481-0.344-4.152-0.344h-9.478
				l-3.539,20.073h6.58l1.234-6.999h2.007c0.763-0.004,1.362,0.056,1.813,0.176c0.447,0.122,0.767,0.312,0.955,0.581
				c0.196,0.27,0.301,0.633,0.303,1.078c0.005,0.446-0.056,0.997-0.178,1.649c-0.151,0.902-0.25,1.654-0.29,2.261
				c-0.043,0.607-0.037,1.021,0.008,1.254h6.663l0.106-0.615c-0.255,0.006-0.407-0.101-0.47-0.329
				c-0.056-0.221-0.046-0.59,0.033-1.106c0.083-0.516,0.2-1.207,0.362-2.077c0.14-0.805,0.209-1.481,0.205-2.029
				c0-0.554-0.065-1.01-0.193-1.367c-0.128-0.356-0.314-0.649-0.545-0.882c-0.238-0.229-0.521-0.423-0.847-0.581
				s-0.689-0.314-1.08-0.464c0.814-0.218,1.513-0.567,2.098-1.041c0.579-0.478,1.051-1.045,1.403-1.71
				c0.353-0.66,0.6-1.381,0.732-2.156c0.179-0.974,0.179-1.82,0-2.541C313.316,308.121,312.929,307.527,312.322,307.059z
				 M307.236,312.438c-0.084,0.459-0.27,0.832-0.553,1.11c-0.287,0.279-0.672,0.479-1.156,0.604
				c-0.487,0.12-1.067,0.185-1.747,0.181h-2.593l0.701-3.988h3.066c0.516,0,0.958,0.077,1.328,0.229
				c0.372,0.148,0.642,0.38,0.813,0.688C307.269,311.573,307.316,311.965,307.236,312.438z"/>
			<polygon fill="#FFFFFF" points="266.425,305.664 265.232,312.438 259.015,312.438 260.208,305.664 253.629,305.664 
				250.091,325.737 256.669,325.737 258.04,317.96 264.256,317.96 262.886,325.737 269.464,325.737 273.005,305.664 			"/>
			<polygon fill="#FFFFFF" points="333.029,305.664 314.63,305.664 313.7,310.936 319.61,310.936 317.001,325.737 323.58,325.737 
				326.191,310.936 332.1,310.936 			"/>
			<polygon fill="#FFFFFF" points="381.764,301.705 382.953,303.824 387.079,303.824 384.403,299.699 379.83,299.699 
				375.73,303.824 379.83,303.824 			"/>
			<path fill="#FFFFFF" d="M221.9,310.992c-0.271-1.212-0.792-2.211-1.562-2.994c-0.772-0.791-1.766-1.375-2.987-1.762
				c-1.222-0.382-2.645-0.572-4.265-0.572h-8.81l-3.542,20.073h8.644c1.617,0.004,3.108-0.187,4.483-0.573
				c1.371-0.386,2.598-0.994,3.68-1.821c1.077-0.832,1.989-1.907,2.722-3.243c0.735-1.328,1.268-2.936,1.608-4.818
				C222.16,313.633,222.169,312.202,221.9,310.992z M215.227,315.645c-0.224,1.259-0.585,2.291-1.091,3.084
				c-0.503,0.8-1.138,1.39-1.909,1.767c-0.771,0.375-1.669,0.563-2.69,0.558h-1.394l1.886-10.707h1.254
				c0.878-0.002,1.614,0.077,2.203,0.237c0.591,0.17,1.046,0.448,1.367,0.844c0.314,0.399,0.505,0.938,0.566,1.626
				C215.479,313.741,215.414,314.604,215.227,315.645z"/>
			<polygon fill="#FFFFFF" points="220.875,325.737 237.629,325.737 238.455,321.053 228.281,321.053 228.834,317.9 237.113,317.9 
				237.941,313.219 229.661,313.219 230.166,310.346 239.952,310.346 240.779,305.664 224.416,305.664 			"/>
			<path fill="#FFFFFF" d="M430.771,310.992c-0.271-1.212-0.79-2.211-1.562-2.994c-0.771-0.791-1.764-1.375-2.987-1.762
				c-1.221-0.382-2.645-0.572-4.266-0.572h-8.809l-3.54,20.073h8.641c1.62,0.004,3.109-0.187,4.483-0.573
				c1.374-0.386,2.599-0.994,3.683-1.821c1.076-0.832,1.985-1.907,2.722-3.243c0.732-1.328,1.267-2.936,1.607-4.818
				C431.03,313.633,431.041,312.202,430.771,310.992z M424.098,315.645c-0.223,1.259-0.584,2.291-1.091,3.084
				c-0.501,0.8-1.136,1.39-1.909,1.767c-0.771,0.375-1.668,0.563-2.691,0.558h-1.394l1.887-10.707h1.255
				c0.877-0.002,1.613,0.077,2.2,0.237c0.591,0.17,1.044,0.448,1.368,0.844c0.314,0.399,0.505,0.938,0.566,1.626
				C424.352,313.741,424.287,314.604,424.098,315.645z"/>
			<polygon fill="#FFFFFF" points="433.286,305.664 429.746,325.737 436.324,325.737 439.865,305.664 			"/>
			<path fill="#FFFFFF" d="M454.345,305.664h-6.692l-10.73,20.073h6.437l1.225-2.651h6.552l0.311,2.651h6.552L454.345,305.664z
				 M446.572,318.907l3.303-7.192l0.85,7.192H446.572z"/>
			<polygon fill="#FFFFFF" points="404.967,305.664 403.844,312.049 403.286,316.621 398.055,305.664 391.896,305.664 
				388.354,325.737 394.654,325.737 395.773,319.38 396.331,314.81 401.568,325.737 407.729,325.737 411.268,305.664 			"/>
			<path fill="#FFFFFF" d="M377.64,305.664l-9.71,18.158l-0.339,1.915h5.754l1.224-2.651h6.549l0.312,2.651h6.551l-3.652-20.073
				H377.64z M376.555,318.907l3.304-7.192l0.852,7.192H376.555z"/>
			<polygon fill="#FFFFFF" points="359.386,321.053 362.099,305.664 355.521,305.664 351.979,325.737 366.904,325.737 
				367.93,323.822 368.418,321.053 			"/>
			<path fill="#FFFFFF" d="M352.563,312.467c-0.094-1.014-0.341-1.966-0.738-2.85c-0.396-0.881-0.952-1.659-1.672-2.325
				c-0.722-0.675-1.619-1.199-2.682-1.58c-1.064-0.379-2.313-0.572-3.745-0.578c-1.57,0.006-3.037,0.252-4.41,0.739
				c-1.365,0.49-2.597,1.186-3.687,2.096c-1.089,0.91-1.999,2.008-2.729,3.282c-0.726,1.276-1.231,2.701-1.519,4.282
				c-0.295,1.709-0.313,3.228-0.047,4.556c0.265,1.332,0.78,2.454,1.543,3.37c0.76,0.919,1.747,1.613,2.949,2.092
				c1.199,0.473,2.595,0.71,4.172,0.717c1.195,0,2.348-0.157,3.456-0.459c1.11-0.301,2.157-0.747,3.132-1.337
				c0.982-0.587,1.863-1.314,2.648-2.173c0.789-0.863,1.454-1.854,1.998-2.979c0.544-1.12,0.939-2.365,1.186-3.731
				C352.61,314.521,352.655,313.483,352.563,312.467z M345.842,315.589c-0.146,0.832-0.354,1.599-0.623,2.301
				c-0.27,0.701-0.609,1.308-1.019,1.829c-0.408,0.516-0.886,0.921-1.439,1.204c-0.554,0.287-1.186,0.431-1.896,0.436
				c-0.628-0.005-1.143-0.12-1.556-0.352c-0.41-0.232-0.73-0.546-0.962-0.94c-0.228-0.393-0.386-0.841-0.473-1.338
				c-0.086-0.497-0.117-1.017-0.096-1.555c0.023-0.539,0.079-1.068,0.173-1.585c0.089-0.511,0.219-1.032,0.389-1.552
				c0.173-0.521,0.392-1.023,0.65-1.493c0.268-0.48,0.583-0.905,0.945-1.28c0.367-0.376,0.784-0.675,1.266-0.89
				c0.472-0.218,1.006-0.329,1.604-0.333c0.583-0.015,1.072,0.081,1.482,0.283c0.402,0.2,0.735,0.484,0.985,0.846
				c0.251,0.361,0.434,0.787,0.549,1.262c0.111,0.475,0.17,0.981,0.167,1.521C345.989,314.493,345.939,315.035,345.842,315.589z"/>
		</g>
	</g>
	<path fill-rule="evenodd" clip-rule="evenodd" fill="#FFFFFF" d="M119.69,315.464c-8.023-7.706-13.027-18.532-13.027-30.493
		c0-17.742,11.019-32.995,26.561-39.266v0.002v5.523c0,1.219,0.998,2.219,2.219,2.219h3.183l-18.796,62.015H119.69L119.69,315.464z
		 M155.562,326.776c-0.046,0.006-0.092,0.015-0.138,0.019v-9.113c0-1.218,0.999-2.218,2.219-2.218h4.898L160.098,305h-22.231
		l-2.444,10.464h4.897c1.22,0,2.219,1,2.219,2.218v9.115c2.102,0.324,4.254,0.493,6.444,0.493
		C151.22,327.29,153.417,327.113,155.562,326.776L155.562,326.776z M164.817,245.737c15.501,6.292,26.482,21.519,26.482,39.233
		c0,11.959-5.006,22.783-13.027,30.493h-0.141l-18.795-62.015h3.182c1.221,0,2.221-1,2.221-2.219v-5.523
		C164.764,245.715,164.792,245.727,164.817,245.737L164.817,245.737z M157.587,294.254l-8.604-36.853l-8.606,36.853H157.587z"/>
</g>
</svg>
