<?xml version="1.0" encoding="utf-8"?>
<!-- Generator: Adobe Illustrator 16.0.0, SVG Export Plug-In . SVG Version: 6.00 Build 0)  -->
<!DOCTYPE svg PUBLIC "-//W3C//DTD SVG 1.1//EN" "http://www.w3.org/Graphics/SVG/1.1/DTD/svg11.dtd">
<svg version="1.1" id="Layer_1" xmlns="http://www.w3.org/2000/svg" xmlns:xlink="http://www.w3.org/1999/xlink" x="0px" y="0px"
	 width="270px" height="104px" viewBox="0 0 270 104" enable-background="new 0 0 270 104" xml:space="preserve">
<g>
	<path fill="none" stroke="#F58220" stroke-width="1.6" stroke-miterlimit="2.6131" d="M49.465,10.007
		c22.051,0,39.934,17.882,39.934,39.934c0,22.051-17.883,39.932-39.934,39.932S9.531,71.99,9.531,49.941
		C9.531,27.889,27.414,10.007,49.465,10.007L49.465,10.007z"/>
	<path fill="none" stroke="#FFFFFF" stroke-width="5" stroke-miterlimit="2.6131" d="M76.745,28.894
		C62.86,11.567,37.549,8.774,20.221,22.659C2.894,36.544,0.102,61.857,13.986,79.184c13.885,17.328,39.196,20.119,56.524,6.236
		C87.838,71.535,90.631,46.222,76.745,28.894L76.745,28.894z"/>
	<path fill="#FFFFFF" d="M46.846,90.596l1.146-1.83L46.846,90.596L46.846,90.596z M54.537,78.307l1.115-1.779L54.537,78.307
		L54.537,78.307z M29.163,51.411h9.772c-2.483,1.923-4.082,4.932-4.082,8.315c0,4.33,2.62,8.049,6.361,9.659h-6.503
		c-3.906,0-7.086,3.197-7.104,7.105L27.548,90.1l-9.188-6.258V62.21C18.361,56.271,23.222,51.411,29.163,51.411L29.163,51.411z
		 M47.993,88.766v-6.949c0-1.273,2.519-2.775,5.596-3.336l0.949-0.174l0.036-0.004l1.194-0.219l-6.519,10.451l-1.013,0.186
		L47.993,88.766L47.993,88.766L47.993,88.766z M56.855,77.887l6.268-1.143V76.49c0-3.908-3.196-7.105-7.103-7.105h-6.503
		c3.741-1.609,6.361-5.329,6.361-9.659c0-3.384-1.599-6.393-4.082-8.316h9.772c5.942,0,10.802,4.861,10.802,10.801v21.079
		l-0.117,0.023v1.029l-21.917,3.996L56.855,77.887L56.855,77.887z M38.979,51.377c-5.65-2.467-9.6-8.102-9.6-14.659
		c0-8.828,7.158-15.987,15.985-15.987c8.828,0,15.987,7.159,15.987,15.987c0,6.557-3.95,12.192-9.599,14.659
		c-1.771-1.357-3.985-2.165-6.389-2.165C42.964,49.213,40.749,50.02,38.979,51.377L38.979,51.377z"/>
	<path fill="#F58220" d="M93.776,86.062l-2.687,8.049h0.991l2.687-8.049H93.776L93.776,86.062z M94.816,94.111l1.405-4.203
		c0.12-0.365,0.229-0.701,0.326-1.01c0.097-0.305,0.183-0.594,0.262-0.863c0.077-0.271,0.147-0.529,0.212-0.779l0.036-0.014
		c0.018,0.189,0.037,0.371,0.06,0.547c0.022,0.176,0.049,0.352,0.082,0.527c0.03,0.18,0.068,0.369,0.112,0.572
		c0.042,0.203,0.094,0.426,0.154,0.672l1.186,4.551h0.979l2.686-8.049h-0.931l-1.427,4.275c-0.125,0.373-0.229,0.701-0.318,0.99
		c-0.086,0.291-0.162,0.557-0.223,0.801c-0.063,0.246-0.118,0.49-0.167,0.729l-0.025,0.012c-0.021-0.229-0.048-0.455-0.079-0.686
		c-0.031-0.227-0.07-0.469-0.119-0.723c-0.048-0.252-0.108-0.531-0.184-0.836l-1.183-4.562h-1.086l-2.688,8.049H94.816
		L94.816,94.111z M101.271,93.67c0.099,0.102,0.243,0.195,0.43,0.275c0.186,0.084,0.402,0.15,0.647,0.205
		c0.246,0.049,0.504,0.076,0.777,0.082c0.454-0.002,0.871-0.066,1.247-0.191c0.377-0.129,0.705-0.305,0.988-0.531
		c0.283-0.227,0.512-0.488,0.685-0.787c0.175-0.301,0.289-0.625,0.339-0.975c0.048-0.33,0.031-0.623-0.048-0.885
		c-0.08-0.258-0.219-0.486-0.416-0.695c-0.199-0.207-0.449-0.398-0.756-0.57c-0.26-0.152-0.471-0.301-0.638-0.447
		c-0.164-0.145-0.279-0.303-0.346-0.471c-0.068-0.168-0.086-0.357-0.056-0.576c0.024-0.164,0.084-0.326,0.179-0.48
		c0.095-0.156,0.22-0.297,0.374-0.422c0.157-0.127,0.34-0.225,0.546-0.299c0.208-0.072,0.439-0.109,0.69-0.111
		c0.21-0.002,0.404,0.016,0.577,0.061c0.171,0.037,0.321,0.09,0.448,0.15c0.126,0.061,0.229,0.117,0.306,0.17l0.476-0.826
		c-0.083-0.061-0.199-0.123-0.347-0.184c-0.149-0.061-0.327-0.111-0.536-0.156c-0.21-0.039-0.445-0.062-0.707-0.064
		c-0.373,0-0.73,0.057-1.075,0.166c-0.342,0.107-0.655,0.27-0.934,0.475c-0.28,0.205-0.512,0.453-0.696,0.74
		c-0.183,0.291-0.303,0.613-0.357,0.973c-0.06,0.434,0.024,0.818,0.25,1.156c0.224,0.336,0.577,0.639,1.053,0.91
		c0.259,0.154,0.466,0.309,0.617,0.465c0.152,0.154,0.256,0.32,0.312,0.49c0.056,0.168,0.068,0.352,0.038,0.551
		c-0.037,0.242-0.116,0.455-0.238,0.643c-0.121,0.188-0.271,0.346-0.454,0.473c-0.183,0.129-0.381,0.225-0.6,0.289
		c-0.217,0.068-0.439,0.1-0.669,0.1c-0.336-0.002-0.644-0.051-0.923-0.145c-0.279-0.092-0.517-0.215-0.712-0.367L101.271,93.67
		L101.271,93.67z M108.398,94.111h0.991l2.397-7.189h2.365l0.291-0.859h-5.71l-0.29,0.859h2.352L108.398,94.111L108.398,94.111z
		 M115.336,86.062l-2.687,8.049h0.991l2.688-8.049H115.336L115.336,86.062z M116.843,94.111h0.992l2.395-7.189h2.366l0.292-0.859
		h-5.71l-0.291,0.859h2.353L116.843,94.111L116.843,94.111z M123.781,86.062l-1.57,4.695c-0.062,0.186-0.115,0.373-0.16,0.564
		c-0.046,0.188-0.082,0.369-0.106,0.545c-0.058,0.414-0.05,0.773,0.027,1.072c0.076,0.303,0.207,0.547,0.393,0.74
		c0.183,0.193,0.412,0.332,0.684,0.43c0.271,0.09,0.575,0.137,0.908,0.137c0.571,0,1.097-0.113,1.577-0.342
		c0.482-0.23,0.914-0.59,1.296-1.086c0.382-0.498,0.708-1.145,0.98-1.941l1.611-4.814h-0.991l-1.607,4.777
		c-0.204,0.604-0.437,1.094-0.703,1.469c-0.266,0.377-0.56,0.654-0.879,0.828c-0.319,0.178-0.666,0.262-1.03,0.26
		c-0.301,0-0.553-0.057-0.759-0.174c-0.208-0.117-0.356-0.291-0.448-0.52c-0.089-0.232-0.11-0.52-0.063-0.861
		c0.024-0.166,0.057-0.336,0.099-0.506c0.04-0.172,0.089-0.34,0.143-0.506l1.593-4.768H123.781L123.781,86.062z M129.923,94.111
		h0.991l2.396-7.189h2.365l0.291-0.859h-5.71l-0.291,0.859h2.354L129.923,94.111L129.923,94.111z M137.25,94.244
		c0.551-0.002,1.072-0.102,1.559-0.297c0.49-0.195,0.939-0.473,1.35-0.824c0.273-0.242,0.525-0.512,0.752-0.816
		s0.426-0.625,0.598-0.967c0.174-0.342,0.316-0.689,0.432-1.051c0.115-0.359,0.199-0.713,0.248-1.061
		c0.051-0.346,0.062-0.682,0.037-1.006c-0.027-0.32-0.1-0.623-0.213-0.9c-0.113-0.275-0.275-0.52-0.484-0.727
		c-0.211-0.209-0.473-0.373-0.789-0.488s-0.689-0.176-1.121-0.178c-0.342,0-0.68,0.047-1.018,0.133
		c-0.338,0.088-0.66,0.213-0.973,0.375s-0.6,0.355-0.865,0.58c-0.281,0.244-0.539,0.52-0.771,0.826
		c-0.236,0.307-0.445,0.633-0.625,0.98c-0.184,0.348-0.334,0.701-0.455,1.066c-0.119,0.361-0.207,0.725-0.258,1.08
		c-0.049,0.346-0.057,0.676-0.023,0.996c0.031,0.324,0.108,0.619,0.229,0.893c0.123,0.277,0.288,0.52,0.501,0.725
		c0.217,0.205,0.477,0.365,0.789,0.482c0.311,0.115,0.676,0.176,1.09,0.178H137.25L137.25,94.244z M137.488,93.41
		c-0.389-0.004-0.711-0.074-0.961-0.211c-0.254-0.137-0.449-0.322-0.584-0.557c-0.133-0.238-0.219-0.506-0.252-0.807
		s-0.027-0.617,0.021-0.949c0.041-0.281,0.113-0.574,0.209-0.883c0.098-0.305,0.219-0.607,0.369-0.908
		c0.145-0.295,0.312-0.576,0.502-0.84c0.189-0.262,0.395-0.492,0.617-0.689c0.281-0.248,0.588-0.441,0.918-0.582
		c0.332-0.145,0.676-0.217,1.035-0.219c0.352,0.002,0.643,0.053,0.873,0.152c0.234,0.098,0.418,0.229,0.555,0.4
		c0.137,0.17,0.234,0.361,0.293,0.58c0.062,0.213,0.092,0.439,0.096,0.676c0,0.234-0.016,0.471-0.051,0.701
		c-0.039,0.281-0.111,0.58-0.207,0.883c-0.098,0.312-0.221,0.617-0.365,0.916c-0.148,0.303-0.312,0.586-0.498,0.848
		c-0.188,0.262-0.387,0.492-0.604,0.686c-0.289,0.252-0.6,0.449-0.932,0.59c-0.334,0.139-0.674,0.209-1.021,0.211h-0.014V93.41z
		 M148.935,91.568l-0.045,2.543h1.018l0.045-8.051h-1.17l-5.314,8.051h1.039l1.643-2.543H148.935L148.935,91.568z M146.634,90.781
		l1.533-2.344c0.152-0.244,0.301-0.49,0.443-0.738s0.283-0.492,0.424-0.73h0.035c-0.01,0.156-0.02,0.324-0.029,0.5
		c-0.008,0.174-0.018,0.346-0.027,0.516c-0.006,0.17-0.016,0.324-0.023,0.465l-0.012,2.332H146.634L146.634,90.781z M150.964,94.064
		c0.17,0.025,0.357,0.045,0.568,0.061c0.211,0.018,0.432,0.029,0.664,0.037c0.23,0.006,0.463,0.01,0.699,0.01
		c0.773,0.002,1.475-0.086,2.102-0.27c0.625-0.182,1.197-0.465,1.715-0.854c0.289-0.221,0.555-0.475,0.795-0.758
		c0.242-0.285,0.453-0.592,0.639-0.92s0.338-0.67,0.461-1.023c0.123-0.357,0.211-0.719,0.264-1.084
		c0.045-0.338,0.059-0.645,0.033-0.92c-0.027-0.275-0.08-0.52-0.164-0.73c-0.082-0.209-0.182-0.389-0.307-0.535
		c-0.252-0.348-0.617-0.613-1.088-0.799c-0.475-0.184-1.051-0.275-1.721-0.277c-0.354,0-0.699,0.016-1.041,0.045
		c-0.34,0.027-0.67,0.07-0.99,0.123L150.964,94.064L150.964,94.064z M154.349,86.898c0.1-0.02,0.213-0.037,0.338-0.047
		c0.129-0.016,0.256-0.023,0.391-0.027c0.133-0.008,0.262-0.01,0.383-0.01c0.498,0.002,0.914,0.064,1.238,0.189
		c0.33,0.121,0.582,0.297,0.76,0.521c0.182,0.225,0.293,0.488,0.346,0.791c0.051,0.303,0.049,0.635-0.004,0.994
		c-0.055,0.381-0.148,0.75-0.283,1.111c-0.133,0.361-0.305,0.697-0.512,1.016c-0.211,0.318-0.453,0.6-0.732,0.846
		c-0.383,0.35-0.824,0.613-1.324,0.793c-0.498,0.18-1.07,0.271-1.709,0.271c-0.15,0-0.312-0.004-0.494-0.012
		c-0.18-0.008-0.357-0.025-0.535-0.047L154.349,86.898L154.349,86.898z M161.386,94.111l5.385-8.049h-1.086l-3.291,5.027
		c-0.273,0.42-0.502,0.789-0.686,1.105c-0.188,0.314-0.344,0.596-0.479,0.842h-0.037c0.025-0.172,0.045-0.348,0.059-0.521
		c0.012-0.176,0.021-0.365,0.031-0.574c0.01-0.207,0.018-0.447,0.027-0.719l0.158-5.16h-1.016l-0.166,8.051h1.1V94.111z
		 M170.566,89.49h-2.926l0.861-2.58h3.105l0.289-0.848h-4.109l-2.688,8.049h4.287l0.291-0.846h-3.297l0.971-2.939h2.928
		L170.566,89.49L170.566,89.49z M171.646,94.111l1.404-4.203c0.121-0.365,0.229-0.701,0.328-1.01
		c0.096-0.305,0.184-0.594,0.26-0.863c0.078-0.271,0.148-0.529,0.213-0.779l0.037-0.014c0.016,0.189,0.035,0.371,0.059,0.547
		s0.049,0.352,0.082,0.527c0.029,0.18,0.068,0.369,0.111,0.572c0.045,0.203,0.096,0.426,0.156,0.672l1.184,4.551h0.979l2.688-8.049
		h-0.932l-1.426,4.275c-0.127,0.373-0.232,0.701-0.318,0.99c-0.088,0.291-0.16,0.557-0.223,0.801
		c-0.062,0.246-0.119,0.49-0.168,0.729l-0.025,0.012c-0.021-0.229-0.049-0.455-0.078-0.686c-0.033-0.227-0.07-0.469-0.121-0.723
		c-0.047-0.252-0.109-0.531-0.182-0.836l-1.184-4.562h-1.088l-2.686,8.049H171.646L171.646,94.111z M179.662,94.111h0.992
		l2.395-7.189h2.365l0.291-0.859h-5.709l-0.291,0.859h2.352L179.662,94.111L179.662,94.111z M186.599,86.062l-2.686,8.049h0.99
		l2.689-8.049H186.599L186.599,86.062z M186.546,93.67c0.098,0.102,0.242,0.195,0.428,0.275c0.188,0.084,0.402,0.15,0.648,0.205
		c0.246,0.049,0.506,0.076,0.775,0.082c0.455-0.002,0.873-0.066,1.25-0.191c0.377-0.129,0.703-0.305,0.986-0.531
		s0.512-0.488,0.686-0.787c0.174-0.301,0.289-0.625,0.34-0.975c0.047-0.33,0.029-0.623-0.051-0.885
		c-0.078-0.258-0.217-0.486-0.414-0.695c-0.199-0.207-0.449-0.398-0.756-0.57c-0.26-0.152-0.473-0.301-0.639-0.447
		c-0.166-0.145-0.279-0.303-0.348-0.471c-0.066-0.168-0.084-0.357-0.053-0.576c0.023-0.164,0.082-0.326,0.18-0.48
		c0.092-0.156,0.219-0.297,0.375-0.422c0.154-0.127,0.336-0.225,0.545-0.299c0.207-0.072,0.439-0.109,0.691-0.111
		c0.209-0.002,0.402,0.016,0.574,0.061c0.174,0.037,0.322,0.09,0.449,0.15s0.23,0.117,0.305,0.17l0.477-0.826
		c-0.08-0.061-0.197-0.123-0.346-0.184s-0.328-0.111-0.535-0.156c-0.209-0.039-0.445-0.062-0.707-0.064
		c-0.375,0-0.732,0.057-1.076,0.166c-0.342,0.107-0.654,0.27-0.934,0.475c-0.281,0.205-0.512,0.453-0.697,0.74
		c-0.182,0.291-0.303,0.613-0.357,0.973c-0.061,0.434,0.025,0.818,0.252,1.156c0.225,0.336,0.576,0.639,1.055,0.91
		c0.258,0.154,0.465,0.309,0.615,0.465c0.152,0.154,0.256,0.32,0.312,0.49c0.055,0.168,0.066,0.352,0.037,0.551
		c-0.037,0.242-0.115,0.455-0.238,0.643c-0.121,0.188-0.271,0.346-0.453,0.473c-0.182,0.129-0.381,0.225-0.6,0.289
		c-0.217,0.068-0.439,0.1-0.668,0.1c-0.338-0.002-0.645-0.051-0.924-0.145c-0.279-0.092-0.516-0.215-0.711-0.367L186.546,93.67
		L186.546,93.67z M193.671,94.111h0.992l2.396-7.189h2.365l0.291-0.859h-5.711l-0.291,0.859h2.354L193.671,94.111L193.671,94.111z
		 M202.052,91.568l-0.041,2.543h1.014l0.047-8.051h-1.17l-5.316,8.051h1.041l1.643-2.543H202.052L202.052,91.568z M199.753,90.781
		l1.531-2.344c0.156-0.244,0.303-0.49,0.445-0.738c0.141-0.248,0.285-0.492,0.424-0.73h0.035c-0.01,0.156-0.02,0.324-0.029,0.5
		c-0.01,0.172-0.02,0.346-0.025,0.516c-0.01,0.17-0.018,0.324-0.025,0.465l-0.014,2.332H199.753L199.753,90.781z M206.062,93.67
		c0.098,0.102,0.244,0.195,0.432,0.275c0.186,0.084,0.402,0.15,0.646,0.205c0.246,0.049,0.504,0.076,0.777,0.082
		c0.453-0.002,0.869-0.066,1.248-0.191c0.377-0.129,0.703-0.305,0.988-0.531c0.283-0.227,0.512-0.488,0.684-0.787
		c0.176-0.301,0.289-0.625,0.34-0.975c0.045-0.33,0.029-0.623-0.049-0.885c-0.08-0.258-0.219-0.486-0.414-0.695
		c-0.201-0.207-0.449-0.398-0.758-0.57c-0.26-0.152-0.473-0.301-0.637-0.447c-0.166-0.145-0.281-0.303-0.35-0.471
		c-0.066-0.168-0.084-0.357-0.053-0.576c0.023-0.164,0.084-0.326,0.18-0.48c0.092-0.156,0.219-0.297,0.373-0.422
		c0.156-0.127,0.34-0.225,0.549-0.299c0.205-0.072,0.436-0.109,0.689-0.111c0.209-0.002,0.402,0.016,0.574,0.061
		c0.172,0.037,0.322,0.09,0.449,0.15c0.129,0.061,0.23,0.117,0.307,0.17l0.477-0.826c-0.082-0.061-0.199-0.123-0.348-0.184
		s-0.328-0.111-0.535-0.156c-0.209-0.039-0.445-0.062-0.709-0.064c-0.371,0-0.73,0.057-1.074,0.166
		c-0.342,0.107-0.654,0.27-0.934,0.475s-0.512,0.453-0.697,0.74c-0.182,0.291-0.301,0.613-0.355,0.973
		c-0.061,0.434,0.023,0.818,0.25,1.156c0.225,0.336,0.576,0.639,1.053,0.91c0.26,0.154,0.467,0.309,0.617,0.465
		c0.152,0.154,0.258,0.32,0.312,0.49c0.055,0.168,0.066,0.352,0.037,0.551c-0.037,0.242-0.115,0.455-0.238,0.643
		c-0.121,0.188-0.271,0.346-0.453,0.473c-0.182,0.129-0.379,0.225-0.6,0.289c-0.217,0.068-0.439,0.1-0.668,0.1
		c-0.336-0.002-0.645-0.051-0.924-0.145c-0.279-0.092-0.516-0.215-0.711-0.367L206.062,93.67L206.062,93.67z M216.578,91.568
		l-0.043,2.543h1.016l0.047-8.051h-1.17l-5.316,8.051h1.039l1.645-2.543H216.578L216.578,91.568z M214.279,90.781l1.533-2.344
		c0.154-0.244,0.301-0.49,0.441-0.738c0.143-0.248,0.285-0.492,0.426-0.73h0.035c-0.01,0.156-0.021,0.324-0.029,0.5
		c-0.008,0.174-0.016,0.346-0.027,0.516c-0.008,0.17-0.016,0.324-0.025,0.465l-0.012,2.332H214.279L214.279,90.781z M216.138,85.572
		c0.064-0.162,0.137-0.289,0.217-0.379s0.168-0.135,0.264-0.135c0.092-0.002,0.176,0.014,0.244,0.059
		c0.07,0.041,0.15,0.096,0.238,0.156c0.07,0.047,0.141,0.088,0.205,0.125s0.135,0.064,0.211,0.084
		c0.074,0.021,0.164,0.031,0.266,0.031c0.27-0.002,0.5-0.102,0.693-0.297c0.191-0.197,0.344-0.48,0.465-0.85h-0.551
		c-0.07,0.16-0.146,0.279-0.225,0.357c-0.08,0.08-0.166,0.119-0.262,0.119c-0.088-0.002-0.176-0.023-0.254-0.062
		c-0.078-0.043-0.16-0.092-0.24-0.152c-0.064-0.049-0.129-0.092-0.191-0.129c-0.064-0.039-0.135-0.068-0.213-0.088
		c-0.078-0.023-0.172-0.033-0.277-0.033c-0.162,0-0.32,0.053-0.469,0.152c-0.145,0.1-0.275,0.24-0.393,0.418
		c-0.117,0.18-0.215,0.387-0.289,0.623H216.138L216.138,85.572z M221.58,94.244c0.553-0.002,1.072-0.102,1.561-0.297
		c0.49-0.195,0.939-0.473,1.35-0.824c0.273-0.242,0.523-0.512,0.75-0.816s0.426-0.625,0.6-0.967c0.172-0.342,0.316-0.689,0.43-1.051
		c0.117-0.359,0.199-0.713,0.25-1.061c0.049-0.346,0.061-0.682,0.035-1.006c-0.027-0.32-0.098-0.623-0.211-0.9
		c-0.113-0.275-0.277-0.52-0.486-0.727c-0.209-0.209-0.473-0.373-0.789-0.488s-0.689-0.176-1.121-0.178
		c-0.34,0-0.68,0.047-1.016,0.133c-0.338,0.088-0.664,0.213-0.975,0.375c-0.312,0.162-0.6,0.355-0.867,0.58
		c-0.279,0.244-0.537,0.52-0.768,0.826c-0.236,0.307-0.445,0.633-0.627,0.98c-0.184,0.348-0.332,0.701-0.453,1.066
		c-0.119,0.361-0.207,0.725-0.26,1.08c-0.049,0.346-0.057,0.676-0.021,0.996c0.029,0.324,0.107,0.619,0.229,0.893
		c0.121,0.277,0.287,0.52,0.502,0.725c0.213,0.205,0.477,0.365,0.787,0.482c0.312,0.115,0.676,0.176,1.092,0.178H221.58
		L221.58,94.244z M221.822,93.41c-0.391-0.004-0.713-0.074-0.965-0.211s-0.447-0.322-0.582-0.557
		c-0.133-0.238-0.217-0.506-0.252-0.807c-0.033-0.301-0.027-0.617,0.021-0.949c0.041-0.281,0.111-0.574,0.209-0.883
		c0.098-0.305,0.219-0.607,0.367-0.908c0.146-0.295,0.314-0.576,0.502-0.84c0.191-0.262,0.395-0.492,0.617-0.689
		c0.283-0.248,0.588-0.441,0.918-0.582c0.33-0.145,0.676-0.217,1.037-0.219c0.352,0.002,0.643,0.053,0.875,0.152
		c0.23,0.098,0.416,0.229,0.553,0.4c0.137,0.17,0.234,0.361,0.293,0.58c0.061,0.213,0.09,0.439,0.094,0.676
		c0.002,0.234-0.014,0.471-0.049,0.701c-0.041,0.281-0.111,0.58-0.207,0.883c-0.1,0.312-0.223,0.617-0.367,0.916
		c-0.146,0.303-0.311,0.586-0.498,0.848c-0.186,0.262-0.385,0.492-0.604,0.686c-0.289,0.252-0.598,0.449-0.932,0.59
		c-0.332,0.139-0.672,0.209-1.021,0.211h-0.01V93.41z M228.48,94.111h0.979l1.076-3.236c0.121,0.02,0.25,0.033,0.383,0.045
		c0.135,0.01,0.279,0.016,0.432,0.016c0.305,0,0.607-0.027,0.91-0.086c0.301-0.055,0.592-0.139,0.869-0.256
		c0.279-0.113,0.535-0.26,0.77-0.436c0.199-0.145,0.385-0.322,0.561-0.531c0.178-0.213,0.328-0.451,0.451-0.715
		c0.125-0.262,0.211-0.543,0.256-0.844c0.047-0.316,0.037-0.594-0.031-0.83c-0.064-0.238-0.18-0.443-0.346-0.615
		c-0.133-0.143-0.297-0.26-0.488-0.352c-0.195-0.092-0.41-0.158-0.648-0.205c-0.236-0.043-0.484-0.064-0.746-0.064
		c-0.219,0-0.436,0.008-0.646,0.021c-0.215,0.014-0.416,0.033-0.604,0.062c-0.189,0.023-0.361,0.053-0.518,0.084L228.48,94.111
		L228.48,94.111z M231.859,86.887c0.096-0.025,0.217-0.045,0.365-0.061c0.148-0.018,0.324-0.023,0.52-0.023
		c0.312-0.002,0.578,0.041,0.805,0.135c0.227,0.088,0.395,0.232,0.504,0.43c0.111,0.199,0.145,0.455,0.102,0.773
		c-0.043,0.285-0.135,0.547-0.277,0.785c-0.143,0.24-0.326,0.447-0.551,0.625c-0.225,0.18-0.484,0.312-0.775,0.41
		s-0.607,0.148-0.951,0.15c-0.141,0-0.275-0.004-0.4-0.014c-0.127-0.012-0.256-0.027-0.389-0.059L231.859,86.887L231.859,86.887z
		 M238.556,91.568l-0.043,2.543h1.016l0.047-8.051h-1.172l-5.312,8.051h1.037l1.645-2.543H238.556L238.556,91.568z M236.257,90.781
		l1.531-2.344c0.154-0.244,0.303-0.49,0.443-0.738c0.143-0.248,0.285-0.492,0.424-0.73h0.037c-0.012,0.156-0.02,0.324-0.029,0.5
		c-0.01,0.174-0.018,0.346-0.027,0.516s-0.018,0.324-0.025,0.465l-0.012,2.332H236.257L236.257,90.781z M242.898,86.062
		l-1.572,4.695c-0.062,0.186-0.115,0.373-0.162,0.564c-0.045,0.188-0.082,0.369-0.105,0.545c-0.057,0.414-0.049,0.773,0.027,1.072
		c0.076,0.303,0.207,0.547,0.393,0.74c0.184,0.193,0.412,0.332,0.684,0.43c0.273,0.09,0.574,0.137,0.908,0.137
		c0.57,0,1.098-0.113,1.576-0.342c0.482-0.23,0.914-0.59,1.299-1.086c0.381-0.498,0.707-1.145,0.977-1.941l1.613-4.814h-0.99
		l-1.607,4.777c-0.205,0.604-0.439,1.094-0.703,1.469c-0.264,0.377-0.559,0.654-0.881,0.828c-0.318,0.178-0.664,0.262-1.029,0.26
		c-0.301,0-0.555-0.057-0.76-0.174c-0.209-0.117-0.355-0.291-0.449-0.52c-0.088-0.232-0.109-0.52-0.062-0.861
		c0.025-0.166,0.057-0.336,0.1-0.506c0.041-0.172,0.088-0.34,0.143-0.506l1.594-4.768H242.898L242.898,86.062z M247.64,94.111h4.227
		l0.291-0.859h-3.248l2.408-7.189h-0.99L247.64,94.111L247.64,94.111z M255.636,94.244c0.551-0.002,1.072-0.102,1.559-0.297
		c0.49-0.195,0.939-0.473,1.35-0.824c0.275-0.242,0.523-0.512,0.75-0.816s0.426-0.625,0.6-0.967
		c0.172-0.342,0.314-0.689,0.432-1.051c0.115-0.359,0.197-0.713,0.248-1.061c0.049-0.346,0.062-0.682,0.035-1.006
		c-0.027-0.32-0.098-0.623-0.211-0.9c-0.113-0.275-0.277-0.52-0.484-0.727c-0.211-0.209-0.475-0.373-0.791-0.488
		c-0.314-0.115-0.689-0.176-1.119-0.178c-0.342,0-0.682,0.047-1.018,0.133c-0.336,0.088-0.664,0.213-0.975,0.375
		s-0.6,0.355-0.863,0.58c-0.281,0.244-0.539,0.52-0.773,0.826c-0.236,0.307-0.443,0.633-0.625,0.98
		c-0.184,0.348-0.332,0.701-0.453,1.066c-0.119,0.361-0.207,0.725-0.26,1.08c-0.049,0.346-0.055,0.676-0.023,0.996
		c0.033,0.324,0.109,0.619,0.23,0.893c0.123,0.277,0.289,0.52,0.502,0.725c0.215,0.205,0.477,0.365,0.789,0.482
		c0.311,0.115,0.676,0.176,1.09,0.178H255.636L255.636,94.244z M255.875,93.41c-0.391-0.004-0.709-0.074-0.963-0.211
		c-0.252-0.137-0.447-0.322-0.582-0.557c-0.133-0.238-0.217-0.506-0.252-0.807c-0.033-0.301-0.027-0.617,0.021-0.949
		c0.041-0.281,0.111-0.574,0.209-0.883c0.098-0.305,0.219-0.607,0.367-0.908c0.146-0.295,0.316-0.576,0.502-0.84
		c0.191-0.262,0.395-0.492,0.617-0.689c0.283-0.248,0.588-0.441,0.918-0.582c0.332-0.145,0.676-0.217,1.037-0.219
		c0.35,0.002,0.641,0.053,0.875,0.152c0.232,0.098,0.416,0.229,0.551,0.4c0.139,0.17,0.234,0.361,0.295,0.58
		c0.061,0.213,0.09,0.439,0.094,0.676c0.002,0.234-0.014,0.471-0.049,0.701c-0.041,0.281-0.111,0.58-0.207,0.883
		c-0.098,0.312-0.221,0.617-0.367,0.916c-0.146,0.303-0.311,0.586-0.498,0.848c-0.186,0.262-0.385,0.492-0.602,0.686
		c-0.289,0.252-0.602,0.449-0.934,0.59c-0.332,0.139-0.672,0.209-1.021,0.211h-0.012V93.41z"/>
	<path fill="#FFFFFF" d="M163.082,53.511l17.221-1.062c-0.197,2.76,0.131,4.861,0.967,6.314c1.355,2.343,3.758,3.502,7.178,3.502
		c2.545,0,4.631-0.592,6.26-1.79c1.619-1.199,2.586-2.586,2.906-4.161c0.305-1.494-0.068-2.842-1.146-4.026
		c-1.08-1.185-3.896-2.303-8.475-3.353c-7.48-1.765-12.594-4.093-15.34-7.015c-2.771-2.922-3.701-6.639-2.783-11.163
		c0.605-2.976,2.039-5.789,4.299-8.428c2.258-2.638,5.268-4.712,9.035-6.234c3.766-1.508,8.658-2.263,14.678-2.263
		c7.393,0,12.756,1.374,16.074,4.121c3.32,2.746,4.732,7.122,4.258,13.114l-17.045,0.983c0.084-2.599-0.473-4.498-1.672-5.683
		c-1.189-1.171-3.049-1.763-5.566-1.763c-2.088,0-3.738,0.431-4.967,1.318c-1.229,0.876-1.973,1.953-2.229,3.219
		c-0.186,0.915,0.076,1.737,0.789,2.477c0.693,0.769,2.541,1.468,5.572,2.127c7.467,1.683,12.707,3.393,15.738,5.117
		c3.029,1.723,5.061,3.851,6.074,6.409c1.018,2.545,1.221,5.399,0.576,8.564c-0.75,3.702-2.482,7.122-5.164,10.246
		c-2.684,3.137-6.033,5.508-10.051,7.124c-4.004,1.615-8.812,2.422-14.414,2.422c-9.83,0-16.258-1.885-19.271-5.682
		C163.556,64.163,162.392,59.357,163.082,53.511L163.082,53.511z M221.009,14.816h29.703c6.463,0,10.998,1.535,13.588,4.618
		c2.596,3.071,3.32,7.459,2.168,13.128c-1.186,5.843-3.863,10.407-8.045,13.692c-4.182,3.286-9.875,4.928-17.078,4.928h-9.775
		l-4.359,21.462h-17.949L221.009,14.816L221.009,14.816z M233.951,39.469h4.375c3.445,0,5.977-0.592,7.621-1.791
		c1.631-1.198,2.643-2.733,3.02-4.591c0.369-1.818,0.078-3.367-0.879-4.619c-0.941-1.265-3.09-1.897-6.428-1.897h-5.09
		L233.951,39.469L233.951,39.469z"/>
	<path fill="#FFFFFF" d="M108.875,13.833h17.909L108.8,71.66H90.892L108.875,13.833L108.875,13.833z M148.857,62.115h-20.358
		l-5.77,9.549h-18.258l39.715-57.832h19.482l3.762,57.832h-18.703L148.857,62.115L148.857,62.115z M149.003,49.607l0.07-20.788
		l-12.822,20.788H149.003L149.003,49.607z"/>
</g>
</svg>
