<?xml version="1.0" encoding="utf-8"?>
<!-- Generator: Adobe Illustrator 16.0.0, SVG Export Plug-In . SVG Version: 6.00 Build 0)  -->
<!DOCTYPE svg PUBLIC "-//W3C//DTD SVG 1.1//EN" "http://www.w3.org/Graphics/SVG/1.1/DTD/svg11.dtd">
<svg version="1.1" id="Layer_1" xmlns="http://www.w3.org/2000/svg" xmlns:xlink="http://www.w3.org/1999/xlink" x="0px" y="0px"
	 width="460px" height="263.63px" viewBox="0 0 460 263.63" enable-background="new 0 0 460 263.63" xml:space="preserve">
<g>
	<path fill="none" stroke="#F58220" stroke-width="2.9999" stroke-miterlimit="2.6131" d="M84,4.908
		c37.76,0,68.382,30.622,68.382,68.382c0,37.761-30.623,68.383-68.382,68.383S15.619,111.05,15.619,73.29
		C15.619,35.53,46.241,4.908,84,4.908L84,4.908z"/>
	<path fill="none" stroke="#FFFFFF" stroke-width="7.9998" stroke-miterlimit="2.6131" d="M130.716,37.251
		C106.939,7.58,63.596,2.799,33.924,26.574C4.252,50.351-0.529,93.696,23.247,123.366c23.776,29.672,67.119,34.454,96.792,10.679
		C149.711,110.267,154.492,66.923,130.716,37.251L130.716,37.251z"/>
	<path fill-rule="evenodd" clip-rule="evenodd" fill="#FFFFFF" d="M79.516,142.908l1.962-3.137L79.516,142.908L79.516,142.908z
		 M92.686,121.867l1.91-3.049L92.686,121.867L92.686,121.867z M49.235,75.807H65.97c-4.252,3.292-6.99,8.447-6.99,14.24
		c0,7.416,4.487,13.784,10.893,16.541H58.737c-6.689,0-12.134,5.475-12.163,12.164l-0.104,23.304l-15.733-10.714V94.304
		C30.738,84.131,39.062,75.807,49.235,75.807L49.235,75.807z M81.479,139.771v-11.896c0-2.183,4.312-4.752,9.584-5.713l1.624-0.296
		l0.061-0.011l2.045-0.373L83.63,139.379l-1.735,0.318L81.479,139.771L81.479,139.771L81.479,139.771z M96.654,121.144l10.735-1.957
		v-0.436c0-6.688-5.474-12.164-12.163-12.164H84.091c6.405-2.756,10.892-9.125,10.892-16.541c0-5.792-2.738-10.947-6.989-14.24
		h16.734c10.174,0,18.497,8.326,18.497,18.497v36.095l-0.202,0.037v1.763l-37.531,6.842L96.654,121.144L96.654,121.144z
		 M66.044,75.75c-9.674-4.223-16.438-13.873-16.438-25.1c0-15.117,12.258-27.376,27.375-27.376
		c15.117,0,27.376,12.259,27.376,27.376c0,11.228-6.765,20.877-16.438,25.1c-3.033-2.324-6.824-3.706-10.938-3.706
		C72.868,72.044,69.075,73.427,66.044,75.75L66.044,75.75z"/>
	<path fill="#F58220" d="M159.879,135.144l-4.601,13.786h1.697l4.601-13.786H159.879L159.879,135.144z M161.66,148.93l2.406-7.199
		c0.206-0.625,0.391-1.201,0.559-1.728c0.165-0.525,0.313-1.02,0.448-1.481c0.132-0.463,0.253-0.906,0.362-1.332l0.063-0.022
		c0.029,0.325,0.062,0.634,0.102,0.934c0.039,0.299,0.084,0.602,0.139,0.905c0.052,0.306,0.118,0.631,0.194,0.978
		c0.072,0.35,0.161,0.73,0.263,1.152l2.03,7.793h1.677l4.601-13.786h-1.595l-2.444,7.323c-0.213,0.634-0.394,1.199-0.544,1.697
		c-0.149,0.494-0.276,0.952-0.382,1.371c-0.108,0.422-0.202,0.838-0.288,1.247l-0.043,0.02c-0.037-0.391-0.082-0.783-0.136-1.172
		c-0.053-0.393-0.119-0.805-0.203-1.241c-0.081-0.432-0.186-0.91-0.315-1.432l-2.026-7.813h-1.861l-4.601,13.786H161.66
		L161.66,148.93z M172.712,148.174c0.169,0.173,0.416,0.331,0.736,0.471c0.32,0.142,0.689,0.258,1.108,0.347
		c0.422,0.086,0.864,0.133,1.33,0.144c0.778-0.003,1.492-0.112,2.137-0.33c0.645-0.219,1.207-0.518,1.692-0.907
		c0.486-0.389,0.877-0.839,1.173-1.35c0.299-0.515,0.495-1.07,0.58-1.668c0.081-0.562,0.052-1.067-0.083-1.511
		c-0.137-0.443-0.374-0.837-0.711-1.193c-0.342-0.354-0.771-0.682-1.294-0.978c-0.446-0.262-0.808-0.518-1.093-0.767
		c-0.28-0.249-0.478-0.518-0.593-0.805c-0.116-0.285-0.147-0.614-0.094-0.985c0.041-0.283,0.142-0.56,0.306-0.825
		c0.162-0.269,0.376-0.509,0.642-0.723c0.267-0.214,0.581-0.382,0.936-0.507c0.355-0.127,0.751-0.191,1.181-0.195
		c0.361-0.003,0.691,0.031,0.987,0.102c0.293,0.067,0.551,0.156,0.768,0.26c0.217,0.102,0.394,0.2,0.523,0.292l0.817-1.412
		c-0.142-0.105-0.341-0.211-0.595-0.316c-0.254-0.105-0.559-0.194-0.917-0.267c-0.358-0.071-0.761-0.109-1.211-0.113
		c-0.638,0-1.251,0.097-1.84,0.284c-0.586,0.187-1.12,0.459-1.6,0.812c-0.479,0.351-0.875,0.774-1.191,1.269
		c-0.313,0.498-0.52,1.049-0.611,1.666c-0.104,0.743,0.041,1.4,0.428,1.977c0.384,0.576,0.989,1.094,1.804,1.563
		c0.442,0.261,0.797,0.526,1.055,0.794c0.262,0.265,0.44,0.545,0.534,0.838c0.095,0.29,0.117,0.606,0.065,0.944
		c-0.063,0.416-0.198,0.779-0.407,1.101c-0.207,0.32-0.467,0.589-0.778,0.809c-0.312,0.223-0.652,0.386-1.026,0.498
		c-0.371,0.111-0.754,0.169-1.146,0.169c-0.576-0.003-1.103-0.087-1.581-0.249c-0.478-0.159-0.884-0.37-1.218-0.63L172.712,148.174
		L172.712,148.174z M184.916,148.93h1.698l4.103-12.314h4.05l0.498-1.472h-9.777l-0.498,1.472h4.029L184.916,148.93L184.916,148.93z
		 M196.798,135.144l-4.601,13.786h1.698l4.601-13.786H196.798L196.798,135.144z M199.378,148.93h1.697l4.103-12.314h4.05
		l0.498-1.472h-9.777l-0.498,1.472h4.03L199.378,148.93L199.378,148.93z M211.26,135.144l-2.689,8.039
		c-0.107,0.319-0.198,0.642-0.275,0.969c-0.078,0.323-0.139,0.634-0.183,0.934c-0.099,0.709-0.085,1.323,0.046,1.833
		c0.131,0.517,0.354,0.938,0.671,1.269c0.317,0.331,0.708,0.572,1.173,0.734c0.464,0.156,0.984,0.234,1.554,0.234
		c0.978,0.003,1.878-0.188,2.702-0.583c0.823-0.393,1.563-1.013,2.217-1.861c0.654-0.852,1.212-1.957,1.678-3.323l2.76-8.244h-1.697
		l-2.752,8.182c-0.35,1.032-0.749,1.871-1.204,2.515c-0.455,0.646-0.958,1.119-1.506,1.419s-1.139,0.447-1.765,0.443
		c-0.515,0-0.947-0.1-1.301-0.3c-0.356-0.198-0.609-0.494-0.765-0.887c-0.155-0.396-0.19-0.887-0.109-1.474
		c0.042-0.285,0.098-0.576,0.169-0.868c0.07-0.293,0.153-0.583,0.245-0.869l2.729-8.162H211.26L211.26,135.144z M221.775,148.93
		h1.697l4.103-12.314h4.05l0.499-1.472h-9.778l-0.498,1.472h4.03L221.775,148.93L221.775,148.93z M234.322,149.155
		c0.945-0.004,1.836-0.175,2.671-0.507c0.839-0.335,1.608-0.809,2.31-1.416c0.469-0.412,0.897-0.875,1.285-1.394
		c0.388-0.52,0.73-1.072,1.025-1.657c0.296-0.583,0.542-1.183,0.739-1.797c0.198-0.614,0.34-1.221,0.425-1.82
		c0.086-0.593,0.107-1.165,0.061-1.719c-0.047-0.551-0.168-1.067-0.361-1.541c-0.194-0.473-0.473-0.889-0.83-1.247
		c-0.361-0.358-0.812-0.634-1.352-0.836c-0.541-0.198-1.182-0.3-1.92-0.303c-0.584,0-1.164,0.078-1.742,0.229
		c-0.576,0.149-1.133,0.365-1.667,0.642c-0.533,0.276-1.028,0.607-1.482,0.992c-0.479,0.416-0.921,0.889-1.321,1.414
		c-0.403,0.524-0.76,1.084-1.07,1.677c-0.314,0.598-0.571,1.204-0.777,1.827c-0.204,0.62-0.355,1.238-0.443,1.853
		c-0.084,0.589-0.098,1.155-0.04,1.704c0.054,0.553,0.185,1.06,0.394,1.529c0.208,0.475,0.492,0.887,0.858,1.238
		c0.368,0.354,0.815,0.63,1.351,0.828c0.533,0.198,1.156,0.3,1.868,0.304H234.322L234.322,149.155z M234.732,147.724
		c-0.668-0.004-1.217-0.124-1.648-0.358c-0.434-0.234-0.768-0.553-0.999-0.954c-0.228-0.407-0.373-0.866-0.433-1.381
		c-0.055-0.514-0.045-1.058,0.039-1.622c0.07-0.485,0.191-0.989,0.358-1.514c0.167-0.521,0.374-1.039,0.629-1.552
		c0.251-0.511,0.538-0.992,0.862-1.441c0.323-0.45,0.673-0.843,1.055-1.181c0.484-0.425,1.006-0.756,1.572-0.998
		c0.568-0.246,1.157-0.369,1.775-0.373c0.6,0.003,1.098,0.089,1.496,0.26c0.4,0.167,0.714,0.395,0.948,0.685
		c0.234,0.292,0.401,0.62,0.502,0.992c0.104,0.369,0.154,0.752,0.161,1.16c0.003,0.4-0.024,0.803-0.084,1.199
		c-0.07,0.484-0.191,0.992-0.355,1.517c-0.167,0.528-0.379,1.05-0.627,1.564c-0.252,0.518-0.532,1.003-0.853,1.452
		c-0.317,0.45-0.66,0.843-1.031,1.174c-0.496,0.432-1.028,0.771-1.598,1.008c-0.569,0.238-1.152,0.358-1.749,0.362H234.732
		L234.732,147.724z M254.331,144.572l-0.074,4.357h1.738l0.08-13.786h-2.004l-9.101,13.786h1.779l2.814-4.357H254.331
		L254.331,144.572z M250.393,143.225l2.623-4.011c0.264-0.419,0.516-0.841,0.762-1.265c0.241-0.425,0.485-0.841,0.725-1.252h0.062
		c-0.019,0.271-0.035,0.555-0.052,0.854c-0.016,0.3-0.031,0.593-0.045,0.885c-0.014,0.29-0.028,0.556-0.043,0.798l-0.021,3.99
		H250.393L250.393,143.225z M257.807,148.848c0.291,0.042,0.613,0.075,0.975,0.104c0.356,0.027,0.736,0.048,1.133,0.061
		c0.396,0.015,0.795,0.021,1.201,0.021c1.324,0.002,2.523-0.15,3.595-0.465c1.073-0.309,2.054-0.798,2.94-1.459
		c0.494-0.382,0.949-0.814,1.359-1.301c0.414-0.485,0.776-1.011,1.096-1.572c0.316-0.563,0.578-1.148,0.788-1.755
		c0.21-0.61,0.36-1.229,0.45-1.855c0.08-0.579,0.102-1.104,0.057-1.575s-0.136-0.887-0.277-1.249
		c-0.144-0.362-0.316-0.667-0.529-0.919c-0.43-0.596-1.053-1.05-1.863-1.366c-0.812-0.314-1.797-0.471-2.945-0.475
		c-0.603,0-1.196,0.024-1.783,0.075c-0.583,0.047-1.146,0.12-1.693,0.211L257.807,148.848L257.807,148.848z M263.602,136.576
		c0.172-0.035,0.367-0.062,0.58-0.082c0.22-0.023,0.439-0.038,0.669-0.047c0.229-0.011,0.445-0.015,0.653-0.015
		c0.855,0.004,1.565,0.109,2.125,0.324c0.563,0.212,0.994,0.509,1.3,0.894c0.307,0.386,0.501,0.836,0.59,1.354
		c0.089,0.518,0.085,1.086-0.007,1.704c-0.093,0.65-0.253,1.284-0.484,1.902c-0.229,0.616-0.521,1.195-0.878,1.738
		c-0.358,0.542-0.774,1.025-1.252,1.452c-0.655,0.596-1.411,1.047-2.268,1.357c-0.855,0.306-1.832,0.463-2.924,0.463
		c-0.259,0-0.54-0.007-0.849-0.021c-0.306-0.013-0.612-0.04-0.916-0.082L263.602,136.576L263.602,136.576z M275.652,148.93
		l9.223-13.786h-1.861l-5.637,8.611c-0.468,0.72-0.858,1.351-1.174,1.89c-0.316,0.538-0.586,1.021-0.818,1.444h-0.062
		c0.043-0.296,0.075-0.592,0.099-0.894c0.022-0.3,0.039-0.627,0.053-0.981c0.017-0.358,0.031-0.767,0.051-1.233l0.268-8.836h-1.738
		l-0.284,13.786H275.652L275.652,148.93z M291.374,141.015h-5.012l1.474-4.419h5.318l0.496-1.452h-7.037l-4.601,13.786h7.344
		l0.495-1.451h-5.646l1.664-5.032h5.012L291.374,141.015L291.374,141.015z M293.222,148.93l2.406-7.199
		c0.206-0.625,0.391-1.201,0.559-1.728c0.164-0.525,0.314-1.02,0.448-1.481c0.131-0.463,0.254-0.906,0.362-1.332l0.064-0.022
		c0.028,0.325,0.062,0.634,0.101,0.934c0.039,0.299,0.084,0.602,0.139,0.905c0.053,0.306,0.118,0.631,0.193,0.978
		c0.074,0.35,0.162,0.73,0.265,1.152l2.029,7.793h1.677l4.601-13.786h-1.595l-2.444,7.323c-0.214,0.634-0.394,1.199-0.544,1.697
		c-0.149,0.494-0.276,0.952-0.381,1.371c-0.109,0.422-0.203,0.838-0.289,1.247l-0.043,0.02c-0.036-0.391-0.082-0.783-0.135-1.172
		c-0.054-0.393-0.12-0.805-0.205-1.241c-0.08-0.432-0.186-0.91-0.314-1.432l-2.026-7.813h-1.861l-4.601,13.786H293.222
		L293.222,148.93z M306.947,148.93h1.697l4.104-12.314h4.05l0.498-1.472h-9.777l-0.498,1.472h4.029L306.947,148.93L306.947,148.93z
		 M318.829,135.144l-4.601,13.786h1.698l4.601-13.786H318.829L318.829,135.144z M318.736,148.174
		c0.168,0.173,0.414,0.331,0.736,0.471c0.32,0.142,0.688,0.258,1.108,0.347c0.421,0.086,0.864,0.133,1.33,0.144
		c0.777-0.003,1.491-0.112,2.137-0.33c0.646-0.219,1.206-0.518,1.691-0.907c0.485-0.389,0.878-0.839,1.173-1.35
		c0.299-0.515,0.495-1.07,0.581-1.668c0.081-0.562,0.051-1.067-0.083-1.511c-0.137-0.443-0.373-0.837-0.711-1.193
		c-0.342-0.354-0.771-0.682-1.295-0.978c-0.446-0.262-0.809-0.518-1.093-0.767c-0.282-0.249-0.478-0.518-0.594-0.805
		c-0.115-0.285-0.147-0.614-0.093-0.985c0.039-0.283,0.141-0.56,0.306-0.825c0.161-0.269,0.376-0.509,0.643-0.723
		c0.266-0.214,0.579-0.382,0.936-0.507c0.355-0.127,0.751-0.191,1.181-0.195c0.361-0.003,0.689,0.031,0.987,0.102
		c0.293,0.067,0.55,0.156,0.767,0.26c0.217,0.102,0.395,0.2,0.524,0.292l0.816-1.412c-0.142-0.105-0.342-0.211-0.596-0.316
		s-0.558-0.194-0.916-0.267c-0.358-0.071-0.761-0.109-1.211-0.113c-0.638,0-1.251,0.097-1.841,0.284
		c-0.586,0.187-1.12,0.459-1.6,0.812c-0.48,0.351-0.875,0.774-1.191,1.269c-0.314,0.498-0.52,1.049-0.611,1.666
		c-0.104,0.743,0.04,1.4,0.428,1.977c0.385,0.576,0.988,1.094,1.805,1.563c0.442,0.261,0.797,0.526,1.055,0.794
		c0.262,0.265,0.439,0.545,0.534,0.838c0.095,0.29,0.116,0.606,0.064,0.944c-0.062,0.416-0.197,0.779-0.406,1.101
		c-0.207,0.32-0.467,0.589-0.777,0.809c-0.312,0.223-0.652,0.386-1.026,0.498c-0.371,0.111-0.755,0.169-1.146,0.169
		c-0.576-0.003-1.102-0.087-1.58-0.249c-0.479-0.159-0.885-0.37-1.219-0.63L318.736,148.174L318.736,148.174z M330.939,148.93h1.698
		l4.103-12.314h4.05l0.498-1.472h-9.776l-0.499,1.472h4.03L330.939,148.93L330.939,148.93z M345.291,144.572l-0.074,4.357h1.738
		l0.081-13.786h-2.005l-9.101,13.786h1.779l2.815-4.357H345.291L345.291,144.572z M341.354,143.225l2.622-4.011
		c0.265-0.419,0.517-0.841,0.761-1.265c0.243-0.425,0.487-0.841,0.727-1.252h0.061c-0.019,0.271-0.035,0.555-0.051,0.854
		s-0.031,0.593-0.046,0.885c-0.015,0.29-0.028,0.556-0.042,0.798l-0.022,3.99H341.354L341.354,143.225z M352.157,148.174
		c0.169,0.173,0.416,0.331,0.737,0.471c0.32,0.142,0.689,0.258,1.109,0.347c0.42,0.086,0.863,0.133,1.328,0.144
		c0.778-0.003,1.493-0.112,2.139-0.33c0.645-0.219,1.206-0.518,1.691-0.907c0.485-0.389,0.877-0.839,1.172-1.35
		c0.3-0.515,0.495-1.07,0.582-1.668c0.079-0.562,0.051-1.067-0.084-1.511c-0.138-0.443-0.373-0.837-0.711-1.193
		c-0.342-0.354-0.771-0.682-1.295-0.978c-0.445-0.262-0.808-0.518-1.092-0.767c-0.282-0.249-0.479-0.518-0.595-0.805
		c-0.115-0.285-0.147-0.614-0.093-0.985c0.04-0.283,0.142-0.56,0.306-0.825c0.161-0.269,0.377-0.509,0.643-0.723
		s0.58-0.382,0.937-0.507c0.354-0.127,0.749-0.191,1.179-0.195c0.362-0.003,0.691,0.031,0.988,0.102
		c0.293,0.067,0.55,0.156,0.767,0.26c0.218,0.102,0.394,0.2,0.523,0.292l0.818-1.412c-0.143-0.105-0.342-0.211-0.596-0.316
		c-0.255-0.105-0.559-0.194-0.916-0.267c-0.358-0.071-0.763-0.109-1.213-0.113c-0.637,0-1.25,0.097-1.84,0.284
		c-0.586,0.187-1.119,0.459-1.6,0.812c-0.479,0.351-0.875,0.774-1.191,1.269c-0.313,0.498-0.52,1.049-0.611,1.666
		c-0.104,0.743,0.041,1.4,0.428,1.977c0.385,0.576,0.988,1.094,1.805,1.563c0.443,0.261,0.797,0.526,1.055,0.794
		c0.262,0.265,0.44,0.545,0.534,0.838c0.095,0.29,0.117,0.606,0.065,0.944c-0.064,0.416-0.197,0.779-0.407,1.101
		c-0.206,0.32-0.467,0.589-0.778,0.809c-0.311,0.223-0.65,0.386-1.025,0.498c-0.371,0.111-0.754,0.169-1.146,0.169
		c-0.576-0.003-1.102-0.087-1.58-0.249c-0.479-0.159-0.884-0.37-1.218-0.63L352.157,148.174L352.157,148.174z M370.164,144.572
		l-0.074,4.357h1.738l0.08-13.786h-2.005l-9.101,13.786h1.779l2.816-4.357H370.164L370.164,144.572z M366.226,143.225l2.623-4.011
		c0.265-0.419,0.517-0.841,0.761-1.265c0.242-0.425,0.486-0.841,0.726-1.252h0.062c-0.018,0.271-0.036,0.555-0.052,0.854
		c-0.015,0.3-0.03,0.593-0.045,0.885c-0.015,0.29-0.028,0.556-0.043,0.798l-0.021,3.99H366.226L366.226,143.225z M369.411,134.305
		c0.111-0.278,0.234-0.494,0.372-0.647c0.135-0.153,0.286-0.233,0.45-0.233c0.157-0.005,0.299,0.027,0.418,0.1
		c0.12,0.071,0.256,0.164,0.409,0.269c0.12,0.082,0.239,0.152,0.35,0.214s0.233,0.109,0.361,0.144s0.282,0.051,0.457,0.051
		c0.459-0.003,0.852-0.17,1.184-0.507c0.328-0.334,0.592-0.819,0.796-1.456h-0.941c-0.12,0.276-0.25,0.48-0.385,0.616
		c-0.136,0.133-0.284,0.202-0.448,0.202c-0.152-0.003-0.298-0.038-0.435-0.109c-0.137-0.069-0.274-0.155-0.412-0.26
		c-0.108-0.082-0.22-0.157-0.326-0.222c-0.11-0.064-0.232-0.117-0.367-0.149c-0.132-0.038-0.292-0.058-0.474-0.058
		c-0.279,0.003-0.547,0.089-0.801,0.262c-0.249,0.171-0.475,0.409-0.675,0.716c-0.201,0.307-0.368,0.662-0.495,1.067H369.411
		L369.411,134.305z M378.729,149.155c0.945-0.004,1.835-0.175,2.671-0.507c0.839-0.335,1.609-0.809,2.31-1.416
		c0.469-0.412,0.897-0.875,1.285-1.394c0.389-0.52,0.729-1.072,1.026-1.657c0.295-0.583,0.541-1.183,0.738-1.797
		s0.339-1.221,0.426-1.82c0.085-0.593,0.105-1.165,0.06-1.719c-0.046-0.551-0.167-1.067-0.361-1.541
		c-0.194-0.473-0.472-0.889-0.829-1.247c-0.362-0.358-0.812-0.634-1.354-0.836c-0.541-0.198-1.18-0.3-1.92-0.303
		c-0.583,0-1.163,0.078-1.74,0.229c-0.578,0.149-1.134,0.365-1.667,0.642c-0.534,0.276-1.028,0.607-1.483,0.992
		c-0.479,0.416-0.922,0.889-1.32,1.414c-0.403,0.524-0.761,1.084-1.07,1.677c-0.314,0.598-0.571,1.204-0.777,1.827
		c-0.205,0.62-0.355,1.238-0.443,1.853c-0.085,0.589-0.098,1.155-0.041,1.704c0.053,0.553,0.186,1.06,0.395,1.529
		c0.207,0.475,0.492,0.887,0.857,1.238c0.368,0.354,0.816,0.63,1.35,0.828c0.534,0.198,1.157,0.3,1.869,0.304H378.729
		L378.729,149.155z M379.141,147.724c-0.668-0.004-1.217-0.124-1.65-0.358c-0.433-0.234-0.766-0.553-0.997-0.954
		c-0.229-0.407-0.374-0.866-0.433-1.381c-0.056-0.514-0.046-1.058,0.039-1.622c0.07-0.485,0.189-0.989,0.357-1.514
		c0.167-0.521,0.374-1.039,0.628-1.552c0.251-0.511,0.538-0.992,0.862-1.441c0.324-0.45,0.674-0.843,1.057-1.181
		c0.483-0.425,1.005-0.756,1.572-0.998c0.566-0.246,1.157-0.369,1.775-0.373c0.6,0.003,1.098,0.089,1.496,0.26
		c0.398,0.167,0.713,0.395,0.948,0.685c0.233,0.292,0.401,0.62,0.501,0.992c0.104,0.369,0.154,0.752,0.161,1.16
		c0.003,0.4-0.023,0.803-0.085,1.199c-0.068,0.484-0.189,0.992-0.354,1.517c-0.168,0.528-0.379,1.05-0.628,1.564
		c-0.251,0.518-0.532,1.003-0.854,1.452c-0.315,0.45-0.659,0.843-1.03,1.174c-0.496,0.432-1.028,0.771-1.598,1.008
		c-0.57,0.238-1.152,0.358-1.75,0.362H379.141L379.141,147.724z M390.544,148.93h1.677l1.84-5.542
		c0.211,0.031,0.43,0.055,0.658,0.075c0.229,0.016,0.477,0.026,0.738,0.026c0.522,0,1.041-0.047,1.56-0.146
		c0.515-0.095,1.013-0.242,1.487-0.44c0.479-0.194,0.917-0.443,1.318-0.743c0.34-0.249,0.659-0.552,0.959-0.913
		c0.305-0.362,0.562-0.771,0.775-1.22c0.211-0.45,0.359-0.933,0.437-1.446c0.078-0.541,0.061-1.016-0.051-1.421
		c-0.112-0.409-0.311-0.762-0.595-1.054c-0.228-0.246-0.506-0.447-0.837-0.604c-0.333-0.156-0.702-0.272-1.109-0.347
		c-0.405-0.076-0.83-0.113-1.276-0.113c-0.375,0-0.749,0.013-1.109,0.037c-0.365,0.023-0.712,0.058-1.034,0.104
		c-0.326,0.04-0.62,0.091-0.884,0.146L390.544,148.93L390.544,148.93z M396.332,136.556c0.16-0.042,0.369-0.076,0.625-0.102
		c0.253-0.029,0.552-0.042,0.89-0.042c0.532-0.003,0.987,0.075,1.378,0.229c0.387,0.156,0.676,0.402,0.861,0.74
		c0.19,0.338,0.246,0.777,0.172,1.322c-0.07,0.487-0.23,0.938-0.475,1.347c-0.242,0.409-0.556,0.767-0.941,1.07
		c-0.387,0.304-0.83,0.534-1.328,0.701c-0.5,0.167-1.041,0.253-1.628,0.257c-0.241,0-0.473-0.008-0.688-0.023
		c-0.216-0.017-0.439-0.048-0.664-0.099L396.332,136.556L396.332,136.556z M407.799,144.572l-0.074,4.357h1.739l0.08-13.786h-2.005
		l-9.1,13.786h1.778l2.815-4.357H407.799L407.799,144.572z M403.861,143.225l2.623-4.011c0.264-0.419,0.517-0.841,0.761-1.265
		c0.243-0.425,0.486-0.841,0.726-1.252h0.062c-0.019,0.271-0.036,0.555-0.051,0.854c-0.017,0.3-0.031,0.593-0.046,0.885
		c-0.015,0.29-0.029,0.556-0.043,0.798l-0.021,3.99H403.861L403.861,143.225z M415.23,135.144l-2.689,8.039
		c-0.108,0.319-0.198,0.642-0.276,0.969c-0.077,0.323-0.139,0.634-0.182,0.934c-0.099,0.709-0.085,1.323,0.046,1.833
		c0.131,0.517,0.354,0.938,0.67,1.269c0.317,0.331,0.709,0.572,1.173,0.734c0.466,0.156,0.985,0.234,1.555,0.234
		c0.979,0.003,1.879-0.188,2.702-0.583c0.824-0.393,1.564-1.013,2.219-1.861c0.654-0.852,1.212-1.957,1.677-3.323l2.761-8.244
		h-1.697l-2.752,8.182c-0.351,1.032-0.75,1.871-1.204,2.515c-0.454,0.646-0.958,1.119-1.507,1.419
		c-0.547,0.3-1.137,0.447-1.764,0.443c-0.515,0-0.948-0.1-1.301-0.3c-0.356-0.198-0.61-0.494-0.766-0.887
		c-0.154-0.396-0.188-0.887-0.109-1.474c0.042-0.285,0.098-0.576,0.17-0.868c0.07-0.293,0.152-0.583,0.245-0.869l2.728-8.162H415.23
		L415.23,135.144z M423.353,148.93h7.241l0.497-1.472h-5.563l4.123-12.314h-1.697L423.353,148.93L423.353,148.93z M437.045,149.155
		c0.945-0.004,1.836-0.175,2.671-0.507c0.839-0.335,1.608-0.809,2.31-1.416c0.47-0.412,0.897-0.875,1.285-1.394
		c0.388-0.52,0.73-1.072,1.025-1.657c0.296-0.583,0.542-1.183,0.74-1.797c0.197-0.614,0.339-1.221,0.424-1.82
		c0.086-0.593,0.107-1.165,0.061-1.719c-0.047-0.551-0.168-1.067-0.361-1.541c-0.194-0.473-0.473-0.889-0.829-1.247
		c-0.362-0.358-0.812-0.634-1.353-0.836c-0.541-0.198-1.182-0.3-1.92-0.303c-0.584,0-1.164,0.078-1.741,0.229
		c-0.577,0.149-1.134,0.365-1.668,0.642c-0.533,0.276-1.028,0.607-1.481,0.992c-0.479,0.416-0.922,0.889-1.322,1.414
		c-0.403,0.524-0.76,1.084-1.07,1.677c-0.314,0.598-0.571,1.204-0.777,1.827c-0.204,0.62-0.354,1.238-0.443,1.853
		c-0.084,0.589-0.098,1.155-0.04,1.704c0.054,0.553,0.186,1.06,0.394,1.529c0.208,0.475,0.493,0.887,0.858,1.238
		c0.368,0.354,0.815,0.63,1.351,0.828c0.533,0.198,1.156,0.3,1.868,0.304H437.045L437.045,149.155z M437.455,147.724
		c-0.668-0.004-1.217-0.124-1.648-0.358c-0.434-0.234-0.768-0.553-0.999-0.954c-0.228-0.407-0.373-0.866-0.432-1.381
		c-0.056-0.514-0.046-1.058,0.038-1.622c0.07-0.485,0.191-0.989,0.358-1.514c0.167-0.521,0.374-1.039,0.629-1.552
		c0.251-0.511,0.538-0.992,0.862-1.441c0.323-0.45,0.673-0.843,1.055-1.181c0.484-0.425,1.006-0.756,1.572-0.998
		c0.568-0.246,1.157-0.369,1.775-0.373c0.6,0.003,1.099,0.089,1.497,0.26c0.399,0.167,0.713,0.395,0.948,0.685
		c0.234,0.292,0.4,0.62,0.501,0.992c0.104,0.369,0.154,0.752,0.161,1.16c0.003,0.4-0.023,0.803-0.084,1.199
		c-0.07,0.484-0.19,0.992-0.355,1.517c-0.167,0.528-0.379,1.05-0.627,1.564c-0.251,0.518-0.532,1.003-0.853,1.452
		c-0.317,0.45-0.66,0.843-1.031,1.174c-0.495,0.432-1.028,0.771-1.598,1.008c-0.569,0.238-1.152,0.358-1.749,0.362H437.455
		L437.455,147.724z"/>
	<path fill="#FFFFFF" d="M278.555,79.406l29.49-1.821c-0.338,4.727,0.223,8.325,1.654,10.814c2.32,4.012,6.437,5.995,12.293,5.995
		c4.357,0,7.93-1.014,10.721-3.065c2.77-2.053,4.428-4.428,4.976-7.125c0.52-2.56-0.118-4.866-1.966-6.895
		c-1.848-2.029-6.669-3.943-14.512-5.741c-12.806-3.021-21.564-7.009-26.266-12.012c-4.748-5.003-6.337-11.368-4.764-19.114
		c1.035-5.096,3.49-9.914,7.358-14.433c3.869-4.519,9.019-8.07,15.472-10.675c6.45-2.583,14.829-3.874,25.136-3.874
		c12.657,0,21.841,2.352,27.524,7.056c5.686,4.703,8.106,12.196,7.291,22.457l-29.187,1.683c0.143-4.45-0.811-7.701-2.865-9.73
		c-2.036-2.006-5.22-3.02-9.531-3.02c-3.574,0-6.398,0.738-8.506,2.259c-2.104,1.499-3.377,3.343-3.816,5.511
		c-0.319,1.567,0.132,2.974,1.352,4.242c1.186,1.315,4.354,2.514,9.542,3.643c12.787,2.882,21.762,5.811,26.949,8.762
		s8.667,6.594,10.405,10.975c1.743,4.357,2.088,9.246,0.987,14.665c-1.288,6.339-4.253,12.196-8.844,17.545
		c-4.596,5.373-10.332,9.431-17.211,12.198c-6.856,2.766-15.092,4.15-24.684,4.15c-16.831,0-27.842-3.229-33-9.73
		C279.369,97.644,277.375,89.413,278.555,79.406L278.555,79.406z M377.752,13.143h50.862c11.067,0,18.834,2.628,23.271,7.908
		c4.443,5.257,5.683,12.773,3.711,22.48c-2.032,10.006-6.618,17.822-13.778,23.448c-7.16,5.626-16.909,8.438-29.244,8.438h-16.738
		l-7.465,36.752h-30.735L377.752,13.143L377.752,13.143z M399.911,55.359h7.493c5.901,0,10.235-1.015,13.05-3.067
		c2.791-2.052,4.524-4.68,5.171-7.861c0.633-3.113,0.133-5.765-1.506-7.909c-1.611-2.167-5.289-3.251-11.006-3.251h-8.717
		L399.911,55.359L399.911,55.359z"/>
	<path fill="#FFFFFF" d="M185.734,11.459h30.665l-30.795,99.027h-30.665L185.734,11.459L185.734,11.459z M254.199,94.139h-34.862
		l-9.879,16.348h-31.264l68.009-99.027h33.362l6.439,99.027h-32.025L254.199,94.139L254.199,94.139z M254.45,72.72l0.119-35.599
		L232.615,72.72H254.45L254.45,72.72z"/>
</g>
<g>
	<g>
		<g>
			<path fill="#FFFFFF" d="M205.457,198.984c-1.056-0.518-2.396-0.777-4.027-0.782c-0.896,0-1.766,0.126-2.611,0.379
				c-0.844,0.248-1.641,0.61-2.385,1.089c-0.748,0.475-1.423,1.056-2.026,1.74c-0.604,0.681-1.114,1.46-1.533,2.33
				c-0.415,0.869-0.718,1.824-0.904,2.862c-0.226,1.304-0.24,2.476-0.037,3.515c0.204,1.038,0.607,1.923,1.212,2.655
				c0.603,0.737,1.393,1.296,2.37,1.686c0.977,0.391,2.129,0.586,3.455,0.59c1.06-0.004,2.056-0.152,2.989-0.451
				c0.933-0.305,1.786-0.738,2.552-1.312c0.767-0.571,1.426-1.265,1.984-2.082c0.557-0.814,0.986-1.741,1.286-2.779h-5.044
				c-0.155,0.517-0.374,0.979-0.655,1.386c-0.277,0.408-0.626,0.727-1.046,0.963c-0.414,0.238-0.902,0.361-1.466,0.364
				c-0.659-0.003-1.178-0.126-1.552-0.367c-0.376-0.237-0.637-0.559-0.788-0.971c-0.152-0.407-0.222-0.873-0.215-1.392
				c0.008-0.519,0.062-1.061,0.166-1.627c0.186-1.029,0.456-1.892,0.815-2.581c0.355-0.692,0.784-1.215,1.289-1.562
				c0.5-0.348,1.059-0.523,1.679-0.523c0.826,0.004,1.443,0.233,1.858,0.687c0.411,0.452,0.585,1.1,0.522,1.937h4.978
				c0.1-1.374-0.089-2.548-0.567-3.521C207.279,200.244,206.513,199.498,205.457,198.984z"/>
			<polygon fill="#FFFFFF" points="230.5,210.893 232.664,198.625 227.418,198.625 224.597,214.625 237.042,214.625 
				237.701,210.893 			"/>
			<polygon fill="#FFFFFF" points="176.409,205.27 170.676,205.27 171.19,202.358 178.39,202.358 179.05,198.625 166.605,198.625 
				163.782,214.625 169.027,214.625 170.02,209.003 175.753,209.003 			"/>
			<path fill="#FFFFFF" d="M183.059,198.625l-8.556,16h5.133l0.974-2.111h5.222l0.249,2.111h5.222l-2.912-16H183.059z
				 M182.195,209.181l2.634-5.734l0.678,5.734H182.195z"/>
			<path fill="#FFFFFF" d="M220.41,198.625l-1.689,9.578c-0.096,0.582-0.259,1.094-0.485,1.53c-0.222,0.439-0.536,0.78-0.938,1.029
				c-0.399,0.244-0.914,0.371-1.54,0.374c-0.532-0.003-0.952-0.081-1.252-0.238c-0.3-0.154-0.515-0.366-0.633-0.636
				c-0.122-0.271-0.182-0.582-0.182-0.937c0.004-0.354,0.045-0.728,0.119-1.123l1.688-9.578h-5.244l-1.592,9.022
				c-0.241,1.374-0.274,2.533-0.104,3.481c0.17,0.949,0.53,1.708,1.085,2.285c0.555,0.574,1.284,0.993,2.196,1.251
				c0.911,0.26,1.989,0.387,3.229,0.383c1.767,0.004,3.263-0.253,4.489-0.771c1.229-0.521,2.212-1.326,2.948-2.415
				c0.738-1.09,1.256-2.485,1.552-4.192l1.597-9.045H220.41z"/>
			<polygon fill="#FFFFFF" points="300.574,202.358 301.233,198.625 288.189,198.625 285.365,214.625 298.722,214.625 
				299.38,210.893 291.27,210.893 291.71,208.381 298.312,208.381 298.971,204.647 292.369,204.647 292.773,202.358 			"/>
			<path fill="#FFFFFF" d="M286.183,202.873c-0.214-0.967-0.629-1.762-1.243-2.389c-0.615-0.629-1.407-1.096-2.383-1.404
				c-0.974-0.304-2.107-0.455-3.4-0.455h-7.021l-2.821,16h6.888c1.288,0.004,2.478-0.148,3.575-0.456
				c1.093-0.307,2.069-0.792,2.934-1.451c0.856-0.662,1.586-1.522,2.17-2.584c0.585-1.06,1.011-2.341,1.281-3.842
				C286.391,204.978,286.398,203.837,286.183,202.873z M280.865,206.582c-0.177,1.004-0.466,1.825-0.872,2.459
				c-0.399,0.637-0.906,1.106-1.521,1.406c-0.614,0.301-1.329,0.449-2.144,0.445h-1.11l1.503-8.534h1
				c0.7-0.004,1.285,0.061,1.756,0.189c0.469,0.133,0.832,0.355,1.088,0.671c0.254,0.318,0.402,0.746,0.451,1.295
				C281.064,205.062,281.014,205.751,280.865,206.582z"/>
			<path fill="#FFFFFF" d="M254.544,206.292c0.229-1.314,0.235-2.455,0.021-3.419c-0.216-0.967-0.63-1.762-1.245-2.389
				c-0.615-0.629-1.408-1.096-2.38-1.404c-0.976-0.304-2.109-0.455-3.401-0.455h-7.021l-2.822,16h6.889
				c1.288,0.004,2.479-0.148,3.573-0.456c1.093-0.307,2.072-0.792,2.935-1.451c0.859-0.662,1.584-1.522,2.169-2.584
				C253.847,209.074,254.273,207.793,254.544,206.292z M249.247,206.582c-0.179,1.004-0.467,1.825-0.87,2.459
				c-0.4,0.637-0.908,1.106-1.522,1.406c-0.615,0.301-1.33,0.449-2.146,0.445h-1.111l1.504-8.534h1
				c0.699-0.004,1.286,0.061,1.755,0.189c0.473,0.133,0.834,0.355,1.089,0.671c0.253,0.318,0.405,0.746,0.453,1.295
				C249.447,205.062,249.395,205.751,249.247,206.582z"/>
			<path fill="#FFFFFF" d="M260.86,198.625l-8.558,16h5.136l0.973-2.111h5.222l0.249,2.111h5.222l-2.91-16H260.86z M259.996,209.181
				l2.635-5.734l0.677,5.734H259.996z"/>
		</g>
		<g>
			<path fill="#FFFFFF" d="M209.266,221.019c-0.881-0.903-2.019-1.571-3.414-2.012c-1.396-0.436-3.021-0.653-4.874-0.653h-10.064
				l-4.046,22.934h9.875c1.848,0.006,3.552-0.213,5.123-0.653c1.566-0.44,2.968-1.136,4.205-2.08
				c1.232-0.951,2.271-2.183,3.11-3.706c0.839-1.519,1.449-3.355,1.837-5.506c0.329-1.885,0.339-3.52,0.032-4.9
				C210.742,223.057,210.146,221.915,209.266,221.019z M203.426,229.756c-0.254,1.438-0.668,2.618-1.248,3.526
				c-0.573,0.911-1.301,1.586-2.183,2.017c-0.881,0.43-1.905,0.642-3.073,0.637h-1.592l2.155-12.23h1.434
				c1.003-0.006,1.843,0.084,2.516,0.27c0.676,0.192,1.195,0.511,1.562,0.961c0.361,0.456,0.578,1.073,0.648,1.858
				C203.712,227.58,203.639,228.566,203.426,229.756z"/>
			<path fill="#FFFFFF" d="M366.204,218.354h-7.646l-12.264,22.934h7.359l1.395-3.026h7.486l0.354,3.026h7.487L366.204,218.354z
				 M357.321,233.483l3.775-8.218l0.97,8.218H357.321z"/>
			<polygon fill="#FFFFFF" points="227.971,218.354 221.106,233.609 219.785,218.354 212.203,218.354 215.994,241.287 
				223.543,241.287 235.551,218.354 			"/>
			<path fill="#FFFFFF" d="M174.752,218.354l-12.265,22.934h7.358l1.396-3.026h7.486l0.354,3.026h7.486l-4.172-22.934H174.752z
				 M173.515,233.483l3.774-8.218l0.971,8.218H173.515z"/>
			<polygon fill="#FFFFFF" points="241.632,232.337 251.093,232.337 252.038,226.985 242.577,226.985 243.156,223.705 
				254.336,223.705 255.279,218.354 236.583,218.354 232.539,241.287 251.682,241.287 252.627,235.936 241,235.936 			"/>
			<polygon fill="#FFFFFF" points="302.746,218.354 298.702,241.287 306.219,241.287 310.264,218.354 			"/>
			<polygon fill="#FFFFFF" points="353.481,218.354 332.46,218.354 331.396,224.373 338.15,224.373 335.166,241.287 
				342.684,241.287 345.666,224.373 352.42,224.373 			"/>
			<path fill="#FFFFFF" d="M328.916,219.87c-0.674-0.663-1.565-1.177-2.671-1.554c-1.11-0.371-2.458-0.563-4.045-0.567
				c-1.439,0-2.792,0.153-4.051,0.455c-1.263,0.308-2.396,0.771-3.393,1.381s-1.824,1.374-2.473,2.287
				c-0.654,0.913-1.094,1.98-1.312,3.202c-0.166,0.966-0.166,1.81,0.006,2.525c0.168,0.724,0.46,1.335,0.887,1.849
				c0.419,0.509,0.929,0.944,1.522,1.3c0.595,0.352,1.237,0.648,1.922,0.893c0.689,0.239,1.381,0.451,2.081,0.627
				c0.695,0.176,1.364,0.346,1.99,0.5c0.632,0.158,1.184,0.327,1.662,0.515c0.482,0.185,0.851,0.408,1.099,0.667
				c0.251,0.266,0.341,0.585,0.282,0.969c-0.069,0.359-0.256,0.667-0.558,0.917c-0.299,0.249-0.694,0.441-1.185,0.572
				c-0.488,0.134-1.05,0.197-1.677,0.197c-0.372,0-0.737-0.049-1.095-0.143c-0.355-0.097-0.669-0.239-0.939-0.43
				c-0.286-0.193-0.515-0.436-0.674-0.74c-0.158-0.301-0.243-0.663-0.25-1.077h-7.198c-0.138,1.042-0.048,2.023,0.281,2.947
				c0.331,0.925,0.876,1.735,1.642,2.442c0.759,0.711,1.719,1.269,2.877,1.673c1.156,0.403,2.49,0.609,4.007,0.615
				c1.584,0,3.058-0.165,4.423-0.489c1.369-0.323,2.586-0.811,3.652-1.465c1.072-0.658,1.953-1.477,2.65-2.468
				c0.694-0.987,1.16-2.148,1.399-3.478c0.161-0.924,0.148-1.731-0.026-2.416c-0.17-0.685-0.474-1.279-0.896-1.772
				c-0.425-0.494-0.937-0.914-1.534-1.259c-0.596-0.345-1.238-0.636-1.922-0.882c-0.691-0.238-1.383-0.45-2.082-0.632
				c-0.695-0.181-1.359-0.349-1.984-0.515c-0.633-0.164-1.186-0.339-1.662-0.53c-0.479-0.197-0.845-0.419-1.093-0.687
				c-0.251-0.259-0.347-0.582-0.282-0.959c0.068-0.419,0.318-0.738,0.743-0.966c0.424-0.224,1.051-0.341,1.874-0.341
				c0.371,0,0.711,0.032,1.028,0.1c0.314,0.065,0.596,0.172,0.845,0.315c0.25,0.137,0.446,0.333,0.59,0.589
				c0.148,0.249,0.217,0.574,0.217,0.972h7.136c0.042-1.009-0.08-1.954-0.367-2.83C330.073,221.306,329.59,220.534,328.916,219.87z"
				/>
			<polygon fill="#FFFFFF" points="270.89,225.646 270.254,230.871 264.276,218.354 257.236,218.354 253.191,241.287 
				260.391,241.287 261.669,234.025 262.306,228.801 268.291,241.287 275.328,241.287 279.373,218.354 272.175,218.354 			"/>
			<polygon fill="#FFFFFF" points="301.459,218.354 280.438,218.354 279.376,224.373 286.127,224.373 283.146,241.287 
				290.662,241.287 293.646,224.373 300.398,224.373 			"/>
		</g>
		<g>
			<path fill="#FFFFFF" d="M237.854,250.775c-0.076-0.811-0.273-1.572-0.593-2.278c-0.315-0.705-0.761-1.327-1.338-1.86
				c-0.577-0.54-1.293-0.959-2.144-1.264c-0.851-0.303-1.85-0.458-2.994-0.462c-1.257,0.004-2.43,0.201-3.527,0.591
				c-1.091,0.392-2.077,0.948-2.95,1.676c-0.87,0.729-1.599,1.605-2.182,2.625c-0.579,1.021-0.984,2.161-1.213,3.425
				c-0.235,1.366-0.25,2.582-0.039,3.644c0.212,1.065,0.625,1.963,1.234,2.695c0.609,0.734,1.396,1.29,2.358,1.672
				c0.96,0.379,2.075,0.568,3.338,0.573c0.954,0,1.875-0.125,2.764-0.366c0.888-0.24,1.724-0.597,2.504-1.069
				c0.784-0.469,1.49-1.051,2.118-1.738c0.632-0.69,1.164-1.482,1.597-2.382c0.437-0.896,0.751-1.891,0.948-2.984
				C237.888,252.418,237.926,251.588,237.854,250.775z M232.477,253.271c-0.116,0.666-0.283,1.279-0.5,1.84
				c-0.215,0.562-0.486,1.047-0.812,1.464c-0.327,0.412-0.71,0.736-1.152,0.963c-0.443,0.229-0.948,0.344-1.517,0.348
				c-0.5-0.004-0.914-0.096-1.245-0.281c-0.327-0.186-0.583-0.436-0.769-0.751c-0.181-0.315-0.307-0.673-0.378-1.07
				c-0.066-0.397-0.093-0.812-0.074-1.244c0.019-0.431,0.063-0.854,0.138-1.268c0.07-0.408,0.174-0.824,0.312-1.24
				c0.137-0.417,0.311-0.818,0.52-1.195c0.212-0.384,0.464-0.723,0.755-1.023c0.293-0.3,0.628-0.539,1.011-0.71
				c0.378-0.175,0.804-0.264,1.287-0.267c0.463-0.013,0.856,0.063,1.184,0.226c0.324,0.16,0.588,0.388,0.786,0.677
				c0.202,0.289,0.348,0.629,0.439,1.008c0.09,0.381,0.138,0.786,0.134,1.218C232.594,252.396,232.555,252.829,232.477,253.271z"/>
			<path fill="#FFFFFF" d="M252.826,246.45c-0.48-0.376-1.166-0.654-2.045-0.841c-0.883-0.186-1.984-0.274-3.32-0.274h-7.579
				l-2.831,16.053h5.263l0.987-5.597h1.605c0.609-0.004,1.089,0.044,1.449,0.141c0.357,0.097,0.613,0.249,0.764,0.465
				c0.158,0.215,0.24,0.506,0.242,0.862c0.004,0.356-0.045,0.796-0.143,1.319c-0.12,0.721-0.199,1.322-0.231,1.807
				c-0.035,0.486-0.03,0.816,0.007,1.003h5.328l0.085-0.492c-0.203,0.005-0.325-0.08-0.375-0.263
				c-0.045-0.177-0.037-0.472,0.026-0.885c0.066-0.412,0.16-0.966,0.29-1.661c0.111-0.644,0.166-1.185,0.164-1.623
				c0-0.442-0.053-0.807-0.156-1.093c-0.102-0.286-0.25-0.521-0.435-0.706c-0.19-0.182-0.417-0.338-0.677-0.465
				c-0.261-0.126-0.551-0.251-0.864-0.371c0.651-0.174,1.21-0.453,1.678-0.832c0.463-0.382,0.84-0.836,1.123-1.367
				c0.281-0.528,0.479-1.104,0.586-1.725c0.142-0.779,0.142-1.456,0-2.032C253.621,247.3,253.312,246.825,252.826,246.45z
				 M248.759,250.752c-0.067,0.368-0.216,0.666-0.442,0.889c-0.229,0.224-0.537,0.383-0.925,0.483
				c-0.39,0.097-0.854,0.147-1.396,0.144h-2.074l0.562-3.188h2.452c0.412,0,0.767,0.062,1.062,0.184
				c0.297,0.118,0.513,0.304,0.649,0.55C248.785,250.061,248.822,250.374,248.759,250.752z"/>
			<polygon fill="#FFFFFF" points="216.121,245.335 215.167,250.752 210.194,250.752 211.149,245.335 205.888,245.335 
				203.058,261.388 208.318,261.388 209.415,255.168 214.386,255.168 213.29,261.388 218.551,261.388 221.383,245.335 			"/>
			<polygon fill="#FFFFFF" points="269.386,245.335 254.672,245.335 253.928,249.55 258.655,249.55 256.567,261.388 
				261.829,261.388 263.917,249.55 268.643,249.55 			"/>
			<polygon fill="#FFFFFF" points="308.361,242.169 309.312,243.863 312.611,243.863 310.472,240.564 306.814,240.564 
				303.536,243.863 306.814,243.863 			"/>
			<path fill="#FFFFFF" d="M180.512,249.596c-0.216-0.969-0.632-1.768-1.249-2.395c-0.617-0.633-1.412-1.1-2.389-1.409
				c-0.978-0.305-2.115-0.457-3.411-0.457h-7.045l-2.833,16.053h6.913c1.293,0.003,2.485-0.149,3.584-0.458
				c1.097-0.309,2.078-0.795,2.944-1.457c0.861-0.665,1.591-1.525,2.177-2.593c0.588-1.062,1.014-2.349,1.286-3.854
				C180.72,251.708,180.728,250.563,180.512,249.596z M175.176,253.316c-0.179,1.007-0.468,1.832-0.873,2.467
				c-0.402,0.64-0.91,1.111-1.527,1.412s-1.335,0.451-2.152,0.446h-1.114l1.509-8.562h1.003c0.702-0.002,1.29,0.062,1.762,0.19
				c0.472,0.135,0.836,0.357,1.093,0.674c0.252,0.319,0.404,0.75,0.453,1.3C175.377,251.794,175.325,252.484,175.176,253.316z"/>
			<polygon fill="#FFFFFF" points="179.692,261.388 193.091,261.388 193.752,257.642 185.616,257.642 186.058,255.121 
				192.679,255.121 193.341,251.377 186.719,251.377 187.124,249.079 194.949,249.079 195.61,245.335 182.524,245.335 			"/>
			<path fill="#FFFFFF" d="M347.554,249.596c-0.216-0.969-0.632-1.768-1.249-2.395c-0.616-0.633-1.411-1.1-2.389-1.409
				c-0.977-0.305-2.115-0.457-3.412-0.457h-7.044l-2.832,16.053h6.911c1.295,0.003,2.486-0.149,3.586-0.458
				c1.098-0.309,2.078-0.795,2.944-1.457c0.86-0.665,1.589-1.525,2.177-2.593c0.586-1.062,1.014-2.349,1.285-3.854
				C347.762,251.708,347.77,250.563,347.554,249.596z M342.217,253.316c-0.178,1.007-0.468,1.832-0.873,2.467
				c-0.4,0.64-0.908,1.111-1.526,1.412c-0.616,0.301-1.334,0.451-2.151,0.446h-1.115l1.509-8.562h1.004
				c0.701-0.002,1.29,0.062,1.76,0.19c0.473,0.135,0.835,0.357,1.094,0.674c0.252,0.319,0.404,0.75,0.453,1.3
				C342.42,251.794,342.368,252.484,342.217,253.316z"/>
			<polygon fill="#FFFFFF" points="349.564,245.335 346.734,261.388 351.995,261.388 354.826,245.335 			"/>
			<path fill="#FFFFFF" d="M366.406,245.335h-5.352l-8.582,16.053h5.148l0.979-2.119h5.24l0.248,2.119h5.239L366.406,245.335z
				 M360.19,255.926l2.642-5.753l0.68,5.753H360.19z"/>
			<polygon fill="#FFFFFF" points="326.917,245.335 326.019,250.441 325.573,254.098 321.39,245.335 316.465,245.335 
				313.631,261.388 318.67,261.388 319.565,256.304 320.011,252.648 324.199,261.388 329.126,261.388 331.957,245.335 			"/>
			<path fill="#FFFFFF" d="M305.062,245.335l-7.766,14.521l-0.271,1.531h4.602l0.979-2.119h5.237l0.25,2.119h5.239l-2.921-16.053
				H305.062z M304.195,255.926l2.642-5.753l0.682,5.753H304.195z"/>
			<polygon fill="#FFFFFF" points="290.465,257.642 292.635,245.335 287.373,245.335 284.541,261.388 296.478,261.388 
				297.297,259.856 297.688,257.642 			"/>
			<path fill="#FFFFFF" d="M285.009,250.775c-0.075-0.811-0.272-1.572-0.591-2.278c-0.317-0.705-0.762-1.327-1.337-1.86
				c-0.577-0.54-1.295-0.959-2.146-1.264c-0.85-0.303-1.85-0.458-2.994-0.462c-1.257,0.004-2.43,0.201-3.526,0.591
				c-1.093,0.392-2.077,0.948-2.949,1.676c-0.87,0.729-1.599,1.605-2.183,2.625c-0.58,1.021-0.984,2.161-1.214,3.425
				c-0.235,1.366-0.25,2.582-0.037,3.644c0.212,1.065,0.624,1.963,1.233,2.695c0.609,0.734,1.397,1.29,2.359,1.672
				c0.958,0.379,2.074,0.568,3.336,0.573c0.956,0,1.878-0.125,2.765-0.366c0.888-0.24,1.724-0.597,2.505-1.069
				c0.785-0.469,1.49-1.051,2.117-1.738c0.632-0.69,1.163-1.482,1.598-2.382c0.435-0.896,0.752-1.891,0.948-2.984
				C285.046,252.418,285.083,251.588,285.009,250.775z M279.633,253.271c-0.117,0.666-0.283,1.279-0.498,1.84
				c-0.216,0.562-0.487,1.047-0.814,1.464c-0.327,0.412-0.709,0.736-1.151,0.963c-0.442,0.229-0.948,0.344-1.517,0.348
				c-0.502-0.004-0.914-0.096-1.244-0.281c-0.327-0.186-0.584-0.436-0.77-0.751c-0.182-0.315-0.309-0.673-0.378-1.07
				c-0.068-0.397-0.094-0.812-0.076-1.244c0.019-0.431,0.063-0.854,0.138-1.268c0.071-0.408,0.176-0.824,0.312-1.24
				c0.138-0.417,0.313-0.818,0.521-1.195c0.213-0.384,0.465-0.723,0.756-1.023c0.293-0.3,0.626-0.539,1.011-0.71
				c0.378-0.175,0.806-0.264,1.284-0.267c0.466-0.013,0.857,0.063,1.186,0.226c0.322,0.16,0.588,0.388,0.788,0.677
				c0.201,0.289,0.347,0.629,0.438,1.008c0.089,0.381,0.136,0.786,0.134,1.218C279.751,252.396,279.711,252.829,279.633,253.271z"/>
		</g>
	</g>
	<path fill-rule="evenodd" clip-rule="evenodd" fill="#FFFFFF" d="M98.772,253.172c-6.417-6.163-10.418-14.82-10.418-24.386
		c0-14.189,8.812-26.388,21.241-31.402v0.001v4.418c0,0.975,0.798,1.774,1.774,1.774h2.546l-15.032,49.595H98.772L98.772,253.172z
		 M127.46,262.219c-0.037,0.005-0.074,0.012-0.11,0.016v-7.289c0-0.974,0.799-1.773,1.774-1.773h3.917l-1.955-8.368h-17.778
		l-1.956,8.368h3.917c0.976,0,1.775,0.8,1.775,1.773v7.29c1.681,0.259,3.401,0.395,5.153,0.395
		C123.987,262.63,125.744,262.488,127.46,262.219L127.46,262.219z M134.861,197.41c12.397,5.03,21.179,17.209,21.179,31.376
		c0,9.563-4.004,18.221-10.418,24.386h-0.113l-15.031-49.595h2.545c0.976,0,1.775-0.8,1.775-1.774v-4.418
		C134.818,197.391,134.841,197.4,134.861,197.41L134.861,197.41z M129.079,236.21l-6.882-29.473l-6.882,29.473H129.079z"/>
</g>
</svg>
